<mxfile host="Electron" agent="Mozilla/5.0 (Windows NT 10.0; Win64; x64) AppleWebKit/537.36 (KHTML, like Gecko) draw.io/25.0.2 Chrome/128.0.6613.186 Electron/32.2.5 Safari/537.36" version="25.0.2">
  <diagram name="Страница — 1" id="hu2N_orPBV7zHquGpwxp">
    <mxGraphModel dx="1036" dy="1433" grid="1" gridSize="10" guides="1" tooltips="1" connect="1" arrows="1" fold="1" page="1" pageScale="1" pageWidth="1169" pageHeight="827" math="0" shadow="0">
      <root>
        <mxCell id="0" />
        <mxCell id="1" parent="0" />
        <mxCell id="xKZLY5sYZlGWzE59zILW-1" value="" style="shape=image;verticalLabelPosition=bottom;labelBackgroundColor=default;verticalAlign=top;aspect=fixed;imageAspect=0;image=data:image/png,iVBORw0KGgoAAAANSUhEUgAABcoAAAHXCAYAAACMDWkbAAAAAXNSR0IArs4c6QAAAARnQU1BAACxjwv8YQUAAAAJcEhZcwAAEnQAABJ0Ad5mH3gAAOefSURBVHhe7N0HnBTl/cfx38Hd0TvSRUAUsIu9YIGoaLDHktgTO1Gif42moEZFE8EYNFijsUdJwKhExZ4gig0RFcECiErvB3fH1f99n5vnnBt293b37uDK5+3rcXdmZ6c8M7fDfufZZzJKyxgAAAAAAAAAAI1Uk+ARAAAAAAAAAIBGiaAcAAAAAAAAANCoEZQDAAAAAAAAABo1gnIAAAAAAAAAQKO2xW/mGV1cRkZG8AwAAAAAAAAAgC2v1oLyNR99Yetmf2F5S1ZaabFZs07trM2g3rbNwXtYaSQcD4flBOcAAAAAAAAAgC2pRoPywvW59sVfnrIFDz9nGxcsDsZWltmqpW13xnDrd+lPrO3OfYKx5QG5D8nDzwEAAAAAAAAAqE01FpR/8/gL9tGVd9mmFauCMVUb9NvzbIffn+tC8SZNmlQE5HouBOYAAAAAAAAAgNpWI0H5p9c/YJ/d+EAwZNb5oO1t29P2tS6H72it+29jTTIzLfe7Nbbq7a/tu8kf2XeTPgymNOt+3BDb/dHrrGnTpi4g94/h4JywHAAAAAAAAABQW6odlH/+x4dt9m/uds+zu7SyPcaeZn3O2s8Nx7Py7a/t46v+aatmLHDD3Y4bYoMeuMYyMzMtKyvLheV6Hg3MAQAAAAAAAACoadUKype9+q69ecRl7nnrfl3s4OcutbY7dXfDyZh+4j32/bOz3PN+V//Mul/+E8vOznYlHJoTlgMAAAAAAAAAakt5Z+Bp+mT0fcEzs/2e/HlKIbkcOOki6zC4/Iae88c+aZu++NY2bNhgubm5tmnTJissLLSioiIrKSkx5fnVbPwOAAAAAAAAAMBm0g7KF0+ZbqtmfOqe7/yH46zTvn3d81RkNGliu956QjBk9t0jL7qgfOPGjZaXl+fCcgXlxcXFhOUAAAAAAAAAgFqRdlD+7T9fdY9N22TbwKuOdM/T0e2IQdZ16E7u+aqp71pOTk5Fq/JwWO6DcgAAAAAAAAAAalLaQfny1993jz2G72ZNW2S55+nqcfxu7rFw2RprOneRa1EeblWuLlhoVQ4AAAAAAAAAqA1pBeWFa9da7nfL3fP2e27rHqujY6jbltyvl7nW5OEW5QUFBbQqBwAAAAAAAADUirSC8k1rNgbPzJp3bRs8S1/zbj/Mo3jtOheQq+Tn58cMymlVDgAAAAAAAACoKWkF5RmZmcEzs5KC4uBZ+ko2FQbPzDQ3BeMqPij3Xa/47lcAAAAAAAAAAKgpaQXlrXp0toyMDPd8w/wV7rE6cr4o78bFadfCtR5XUK6A3Jdoi3IAAAAAAAAAAGpCWkF5aZMm1n7vge75ije/cI/VseLNecEzs8JerSpajyscVwm3JicoBwAAAAAAAADUpLSCcul+zBD3uPr9Bbby7a/d83Qtevx995g1aDtb0aKFC8IVivuAPFZITlgOAAAAAAAAAKgJaQfl251xZPDMbO6YF4NnqfvsD1Msb/la97zZgTu6Rx+IR4Nx/9yLDgMAAAAAAAAAkKq0g/JW/XraDpef5p4vfvETF3inavFzs8ve97x7ntmvmy3Zv6977vl+0L3oMAAAAAAAAAAA1ZV2UC473XSBtd1pe/dcgfdnN5SH3slY9NQHNv2Ee4Mhs+anHBQ8Kw/EmzRpUvHoi4bDYTnBOQAAAAAAAACguqoVlDdp3tz2fOA31qxzOzf82Y1T7L8/Gm/LXv3cDceSM3eZfXDBYzbjZw9YqRW7ca3OG2aLt++4WTDetGlTV8JBuUdIDgAAAAAAAACoCRmlaXT07fsL1002CwoKbN2H82zWJWMtZ84PN/Vsu1M363zADtaqbyezpk1s07L15Tf+nP7DNBlZmdby3GG2ZJ/eFSF5ZmamZWdnW8uWLa1NmzbWrl07a9u2rXuucc2aNasIzwnLAQAAAAAAAADVlVZQLiUlJa4UFhbapk2brDAnx+bd+Ih9/7fngimkpKxklj91z8tpgc322dGaHDvYlndrUxGSKwDPysqy5s2bbxaUt2rVylq0aOFe13R6D0E5AAAAAAAAAKC60g7K9TYF5UVFRa5VeV5enm3YsME2zV9iK/79P1v/9meWN+9bK8nNK39D0yaW2bubZQ3saRl7bW9Le7dxo33grZbkKmoxrqC8devWLij3xbcm1zS+NTlBOQAAAAAAAACguqoVlKuo+xXfqjw3N9eF5Tk5Oe5xw4LvbePPx7vpiy4YZoUHDnDheniRviW5ioJwFYXiPijXo4YVnqtLFrpdAQAAAAAAAID6K1EkvbVy37SDctFbfatyheX5+fkVYfnGjRtt/dff2sqf/tFNm3HJUVZ40EAXrOs9blzZRiv49v2S+77JVdTVig/J1eWKXqM1OQAAAAAAAADUDxsXLrZNy9ZY/nJfVlqTrCxr0bWDZXfpbM23aW/NunSw5j06B+/4Qaz8tzYz4WoH5eGwXF2wKCxXNywKzNd9tci+OW60m7bZqGOteMhOLlBXWC4KvRV++37JfWtyheQ+MPctyembHAAAAAAAAADqnpLCQlsz8wtbNeMTW/XuZ+5x44LFwatVy2jaxNrtsoN12G9n67zfIOtY9thmx+0UIJe/HsqD4z2vrmoF5eKD8nBYrm5YFJiv/fIb+/xH/+ema/vrn1jpobtUBOV6n4JyheAKyNVqXKG4Hn1A7kNyhenhkLwmKwAAAAAAAAAAkJrCdets4aNTbdHTr9jK6R8HYytr0aW9NevV1ppv08aad2trLXq0t+K8Astfur6s5Fj+8rLHleusYPnG4B0/yGzV0roMHWzbnXG0dT/psIpMOJwPRx+ro9pBuSgk94G574ZFgbmC8g8PvMRN02X0GZZ5xGAXoGsaTe/7JfcBefhRAXm4uxW6XAEAAAAAAACArai01Ja++oEteOhZ+/6ZN614U4Eb3bJXR2u/ey9X2u7a0z222bGLZQQtwqtSsqnQ1s7+3pV1s7+ztZ+UPX74nRXklAfo2Z06WO8zjrS+5x5rrXbarlJW7PPi6GOqaiQo1yx8UViuFuMKw9X1ylt7nuum2e6W8y3ryL1ca3OF6KIQ3He34luQa1jdrCgk9zfuJCQHAAAAAAAAgK1n8ZTp9uHIP1nuoqVuuEWv9tb33AOtzzkHWuvtt3HjatqK/31p3zw2wxZN/MCKcvLduE4H7W57TPg/a7VjeWDus2M9Sro5crX7KPd8UC4+LNfNPN/Y5Qw3bsdxl1rzY/ZzLcoVlGtaBeK+2xUVPVdRQO5Dcr9h4Y1LZ0MBAAAAAAAAAKkpzs+3WVfeZV/d8083vO2pe1ufcw+07sN3dsNbQnFugX37r5n21YQ3bPX7C924Xcdebr0uPK5SjyS+SDRTrkqVQXnh2rU27y//CoYCid9SEZhvWr3Wvp5Q/t5tjtrXWgzoY8WFRVYadNWipvdNM5taU92oU/2Qlz33G6JHvyE9jz/E2u2xg3vu+dcIzQEAAAAAAACg5q356At757TfWs6Xi1z3Kvs+ep51OWzH4NWtoLTUvvzrmzb79/+24px863z43rb7Pb+2rG4dKu5zmagBdiJVBuUbFy62KX1PCIa2jr3/9lvrffaP3XO/YeleGQAAAAAAAAAAJLbxmyX24qDTrDgv3/pdcIjt8eefWGarZsGrW9fGhatsxs8esFUzFrguWPZ97Q5r2qKF68EkXmBeleR6U9/KSoqL3Q1C1e+5irp1UfE3Ea0i6wcAAAAAAAAApGDGmde7kHzAlUfY3vedUWdCcmnVp5MN/d+vrcPg3rbxi29swR3/so0bN1pubq67R6bPklPJj5Pqo9zPTMX3P15VWK3hokXL7c3B57jhgWMvtRbHHVixonpd6b5u2qmbeOpRiX+4y5Vw0u+Tf72uEr4qkMqVAQAAAAAAAABAfPP/9py9f8HN1m6nXnbEzN9Yk+zM4JW6ZcP8lTZ1zz9YSZ7Z7s/eZJkDerusOZw3+z7Mq8qPU2pR7kNypfEKu3VTTgXfukGnSl5eXqVSUDbOKykqdtOr6L3honmoRN/vi5+3HsNXBGhVDgAAAAAAAAA164vxT1mTjEw7cPKFdTYkl9b9OtseY0+z0qICW/zoVMvJyXEty5Ulh3PkZDLkpINyPyMflmshPihX8SG2D831vKjsda+4bIXCIXk4bFfx74k1Lz/sp/Xv13qENzDRhgIAAAAAAAAAEivOy7P1n31tXYcPsjY7dg3G1l3bX3iwNWmTbRs+XmAbNmxwRWG5MmVlyeGgPJEqg3IfRIeLZuwDc9/CPFYpLioO5lI2n9D0sd4fnk+s5+FHlfD6AAAAAAAAAACqb/V7c1zm2nZQt2BM3dduhx6W9+V3VrJunQvJw63Kfc7sw/J4eXKVQbnvtyXch4t/7ku4n/B4fYb74fB4/zzee8Pjw48q/v0AAAAAAAAAgJqx6r057rHNoO7usT5ou1M3Ky0utJLPl7gbeqr4rrzVqlwNr31QHk9SXa+Eg2kfZqsTdHWGrk7RfWnWrFml55nZWe590qRpUze970Ddv9+X6Hz8vMLzDL8/eiNPAAAAAAAAAED1fP/s/8r+n2Fr3l9YPqIeWP3ugrL/Z1j+R19V6s473I13uEV5rMA86T7KFUarKKD2IbcPtHUX0RYtWlQ8+pJdNuw1zcqsCL19MB6dR7j4eUTHh+fhw3K/bgTmAAAAAAAAAJC+Zp3buccN81e4x/ogf1mOe8zo3KbiPpf+fpgKyn2LcpV4km5RrhKrNXmskNuXrGbZwRwUlFduNe7frxJ+T6yA3A/7UF3v9a3KCccBAAAAAAAAoGY036aDe9zw9Ur3WNcVrs8vK3nBkLnW4z4sV0geq0V5LEm3KBcflodblYdDbx9kq2hY4bjnu17R+8JF4/z7oyU8L1/8e3xo70N8AnMAAAAAAAAAqJ6mLct7Cdm4YKWtfOtr97wu++L2V4Jn5kJwtR5X8TfxDLcmr5GgPBxIq/jA3IfmsUrTsuKFpw8/D5dY8wgXPw0hOQAAAAAAAADUrB9C5PLHd8960IrzCt3zumjtx9/ZnFtfrMiHtfraBoXiPjCPBuXl020elqfUolx8SO4Dah9axyoZTUIBdtlTNy7y/qrmES3h9/kCAAAAAAAAAKg5bQd2s43frLbZ104OxtQtpUUlNuNnf3OPHfbZTmNcAO6D8miJFY6HpRyUe7EC62gJ88Ph8eHp/PNUCgAAAAAAAACg5u145TDLbNXMvrzrDZv5y6esOLcgeGXrU4D/xmG32/rPl1q7XXtY5/37Bq+UtxZPVOJJOyivSqwwOzwc77kXaxwAAAAAAAAAoPY169zGhr51tbXq08m+uvtNm7rbjbb6/YXBq1vP/Aenu3VZ+fbX1u3Ineyw1640C/dsEhIrII8XltdaUA4AAAAAAAAAqL/a797Ljpp9nW176l62Yf5Ke+2A2+x/R99p3036yHV5sqUUrs21L8a/blN3u8k+uOAxK8kvtN3+dJId8tLl1qxz62CqymKF5IkQlAMAAAAAAAAAYsps3cwOeOoC2+dvZ1uT5pm2dOoce/uU++y5Xte4/ssVoNeW5W9+Ye+e+ZA91+PXNuuKibbu0+9dC/dhb19jA68+MpgqOVUF5gTlAAAAAAAAAICE+v78QBux8Bbb7Y8nWZsdutim5Tk297aX7YX+v7cXdhxt7537sH19/1suzLYkW3GHlWwqtJVvfe3mOf3Ee+zZblfbm0P/bN88+Z4V5xfZNofuaPs9dp4dPfcP1mGv3sG7ak5GabJtz9OwYcH39p9+J7rne9x9lbU/6VDLy8uzgoLyjt8zMzOtefPm1qJFC2vWrJllZWVZ06ZNXf/k9FEOAAAAAAAAAFuOouJZv/qzfXHn03bQ5Eus5wl7BK9sbtnr82zB36bZoqc+CMb8ILNNc+u4V29r3r2dNe/axpp1aVv22M5a9GrvbgqavyynrKyzTcFj7rdrbfV7C4J3/0DdqvQ970AX0rcZ0C0Yu7lZV060L/7ymrUZeayt2Ke3y5pbtmxpbdu2tfbt27vSunVrN85n0E2aVG5DTlAOAAAAAAAAAEgpKPeK8wrdTT5XzVhgq9+db6veXWB5i9cFr6YgI8PaDuhqHffra53KSsf9+lj73ba1jKZV58QE5QAAAAAAAACAGpFOUB5L7qLVlvPlcivKybeijZvKSqF7LC4rGU2bWNNW2ZbZqllQsi2rbXPrMLi3a4mejpoIyumjHAAAAAAAAABQY1r27mhdhw10Qft2Z+xn2194sA24Ypjt9PtjbNBvhtuOlw+1fr84yHqfvrf1OHY31/94uiF5TSEoBwAAAAAAAAA0alstKK/FHl8AAAAAAAAAAEharQbl3018NXhmtuS5d+KG44TmAAAAAAAAAICtpdaC8m//9Zp9fO2EYMhs2UvT7etr7rOSkhIXjKv450JYDgAAAAAAAADYGmolKF/1zif29im/cc+bNm9mzbp0ds+/e/Q/tuahF11A7kPy8HNfAACQ8LmBQmnMBQBqWqzPGkrNFAAAUD9llJ3Ia/RMvuGrb+2VfX9uBWvWueH9J95qrQf0sv8eOtIK164vW2KGDZrwf9ZkyE6WmZlpLVq0cKV58+bWrFkza9q0qTVp0qRssgxXAAAN38xf3hY8C+GLJhqxnW+6wLLatw+Gyvl/F/HvIwCp4Bxbu1r239Z2HHV6MFSOz2sAQH2mqHjWr/5sX9z5tB00+RLrecIewSt126wrJ9oXf3nN2ow81lbs09vlzC1btrS2bdta+7LvViqtW7d247Kysioy6LAaDcoL1mywl/c8wzZ+s8QN73rLJdbvip9aQUGBrXnrY3v3+F9baVGxNWmWbTs9/NuyCbZzAblWUGF5dna2W1GtpA/LAQAN39Q9z7a1s+YGQwCOXTbFMsv+Iad/C4UDl3ABgGS8deLV9v2//xsMoabtNm6UbX/ZKe559HPaf1b7RwAA6gOC8hpQUlBgrx96sa2a8akb3u7sH9ue919rhYWFLijPy8uzVf960z7/1Xj3emb7trbzP0ZbRt9ulVqVa0XV0pxW5QDQePig/ODnfxmMARqnT69/ztbOXGRHfzvZmgRBuf83kW9IwL+RAKTCB+WcY2tWzpcr7OMrn7Zd/jjStht5csXncqzPal8AAKgPCMqrq2wW00++xr575k032GXYvnbQ82OtqGy8QvL8/HxXFJav+esz9u3d/3bTNdu2q+389I3WtGs7F5L77lcUlNMFCwA0Hj4oP2H1HZbdvmUwFmh8Xt57jAvKh37xhJX9S879G0j/JlLRv498YwL+jQQgWT4oP2Lm763DHtsGY1Fd8/7yugvKB954oXW/6LiKz+bwZ7b/Tus/swEAqA8ac1BeIzfz/PjaCRUhebtdd7AD/3WzFZc9Lyoqci3KfSkuLrbmvxhunX58oJt207fL7MuLb7OMvLzNpuMGnwAAoLHK27DBcnJybOPGjZabm+saHKjxgf5tFf43EgBg6yrctMk2lH1mq+gzW43D9Hntv9fynRYAgPqj2kH5wkem2NzbHnXPm3ftbIe8+Bcrbd7c/cNA/0Dw/0jQFzv940BJfbcbzrQ2gwe49+TM/toWXH1fzOn5hwUANHx8vgOb27B+va0vKz4sV/CyadOmSsGL8PcDIBE+I2pfQV6+rVu3zn1mKyz3Fzf957W/uAkAAOq+agXly1591977xc3ueWarljbkxb9Yk05t3D8KwsG3D8n1czP9BC2jRQvb4e6rrGXfHu69K16cYStu/2fFe/Tog3L+YQEAABqbjevXVwpefAtF36Kcfx8BSBafFbWrIH9TUkE5+wEAgLov7aB83Sdf21snXGOlxSWW0bSJHTjpFmu103buC1w0JNc/DnxIrv5h1Bd5k86tbbfHRlt2545ufovufcbW//PNzd7LPy4AAEBjkxv6GX+8rlcAAFtfUdD1SvTz2gfl4c9rPrsBAKjb0grK85ettjePuMyKNua64X0e+K11PGyvmCG5/nEg6iA9OzvbheQtWrRwpel2XW2Px6+zJs2buWm++N39tumdzyreH54HYTkANGB8tgOV5OfluVbk4cAl1r+J+HcRAGxdhQWF7vPad5HlP7P5DgsAQP2TclBetHGjC8nzl610wwOvPst6njHc/UMgHJL7fxyID8nVmty3KK8ou/W1Xe/5tWU0aeJap3920e1WNG9RxXxUCMsBAEBjUlT27yj9W8oX/28h/h0EAHVLSdlns//+G/685rsrAAD1T0pBeWnZCf+tE661dZ986YZ7nXCo7XzThe4fA/pHgQ+29dx/mdPNO9XlSjgo1/NwaXfU3jbg5ovcPIs2bLRPzhljGUvXVsyTf3AAAIDGRP/m8f/u8YV//wBA3VNa9vnsP7Oj31f9Zzaf3QAA1A8pBeXv/WKMu4GndNpvZ9vn8RussOwfAgqx44XkWVlZlUJxDYeLH7/NOUdZ7/OPc/MuWLbGheW2bt1m8431Dw8AAICGRP/GiQbk/t89/PsHAOqW6Gd0+HOaz2wAAOqPpIPyz//4sC18ZIp73rr/tnbgc3+24iZNKlp9+zBbobm+1PmW5D4M16OGVdQVi0r4dZX+N5xnnQ7byy1j4xff2NyLx1f08xaevw/io/8IAQAAaAjihSz8uwcA6pbwd9LwcwAA6rOM7Cz3WFJQ3q12fVCyqXxdSzObusd0JBWUf/fMmzb7t/e459kd2tkhL/3FmrRtUanLFT2qKCTPyMhwQXg4BPdBuQL0cPGBuabJaNbMdvvbVdZ65z5uWWvenm1LRj9csQyVaBcsAAAAAABsTXw3BQA0JG13Ks9m1336vXusD9bOLl/X0h7t3GM6qgzKV8341N45/Xc681uT7Cw7+Plxlt2rS6WQ3AflyYbkmsYXH5ZrGpWMtm1t8JM3WfOe27jlL3n6FVt1/5TNlhXthgUAAAAAAAAAUD0ddh/gHtd8uMg91nW6Z8ia2d9Yk2bZtqxT82Ds5pRFJ1JlUP7uOX+wkoJC93zfx/5g7fYZtFlI7lt5xwvJNS5WSO6LXg+H5U27dbA9n7jOMtu2dsud/6fHrXTx6opl6jHaspywHAAah5tueqDsfDLYhg690BYvXhGMrSwvb5NdcskYN52mT8X06bPc+/SYyBNPvGB77nm6zZu3sGL46KNH2qpV69xwTVizZr2dfPL/Wc+eR9p7730ajN1yfD2ec85oy8nZGIwtF67j++6bFIz9wezZX9qAASe4eonWVTzROkz2fbVB66B1SfX4AYD6zJ9jo2WvvX5mf/zj32316po7x4Ule+6tbf7cxmc/AKCxa7PTdpbRpImt+fDbYEzdtv6zpVacU2CZfbsFY8qF8+ew6LBXZVB+6NTx1qpPD9v11kutx4mHunDaB+XhwFoUhPtuVMItyX1QHl0xP6zi3+tD9mYD+9iej462zNatbLdHfmcFnVpVWq4KQTkANF5vvvmBffbZ18FQZYsWLbEZMz4JhuqvL79cZF98sci6dOlo//nPtLLzXknwypbRokUz22OPgTZnznxbtmx1MLbc8uWr7dNPv3brNmvWXBcuhC1cuNg97rrrDu4RAFA/DBrU166//iK79dbLK8ouu2xv48Y9apdccou7iAsAABq2JtnZ1vfnx1v+8rU2/8Hpwdi6a87N5ffVzD50Z/cYzpyjJZEqg/KW23W3I95/xHa86kwXSvug3BcfksdqSZ4oJPf8eE0TDctb7jfIDnjnLss6cGc3jZYfXbYPyoWwHAAah91339GOPPIAF5bHCo8/+GCOtW3byn3Zry1nnHGMffTRUzZgQHnfbTVN26VwfPDggXbWWSPs5ZffcRcAtrS9997JtdxfsKBy33RffPGNO+9effU59sknX7ng3NP4jz6a6/bTdmX/jqjtuqoNnTq1sxdfnGCjR18QjAGAxqF37272y1+ebtdcc25FefjhG+0vf7naXnrpbZs375tgSgAA0JDtesv5lt22nX105VO2fs6W/y6arK/u+a99+88PLXtgX1uy97YV+XM0cw6Pjyepm3lmdWzjvvT6oNwXDWvm0ZDcB+VVheSef13T6j3hsDyjU6eKeYnWI7oO4bAcANDwdevWyY466kB7553ZtmzZqmBsuY0b8+y1196zE04Y6r7sh+m1e+75px1wwNll55zB7vHee/+1WWtoUdcbv//9BOvc+XAbNOgkGz/+Sfd+L5luQTS93qf3a3lHHHGxTZ78uhUVVX3ncG3XtGkfuRbdRx11gK1fv9Fef/394NVy/ifiN954v3vt0EN/Ye3aDbHTTrvGZs6cW3Fu9N2IPPLI8/bUU1Nt991Pddt10UU3V7T8jkd1uPPO27vW457m++67n9quu/a3YcP2ddup4NzTuqq1/2677eguWMSqq2+/XeaWr/XQ+vz732+UzTd4MWLRoqX2i1/c4LZN++wf/3jJNm0qCF4tp+3w81PR9ArwPV8H2t9XXfXnsmPoR3bppbfYN98sTjg+/PN7bbfqVfWrdenb98f2f/93u9uWMA1ffPHN7nVNd8wxv7RXX33X/XsFAOojfVfr27eH64arIOiWU3Qe0ufn4Ydf4M5z/jNP56Tw9zM/XTLnX9F7db5S12MPPvjvivNmMudV343XrFnzKs4L+jwePXpCpa5jtAytp+aheamrM/2SCwCAxs5nuE3bt7fdxl/uujR567i7rTi38newukA38Jw18mlrkpltGecdEowt7/XE58z+uS+JMuqkgnJP/5jwRTRjH2yHQ/JkWpJH+en0nmhYrqLnGqfXJbouAIDG5eCD9yj7gp2/WfcrCky/+WaJ7btv+U+uPH25vuaa8XbbbQ/bqaceZa+8cm/ZF+mDXRh+9dV3VArBRQH0d98ts3/841a78MKT7S9/ecJ+85s7436pj1qxYo2df/4f7MknX7Rrrz3PLW/IkMFl87rJbr/9sSrDcnUdo2D5kEMGW79+vdzjCy9Mi/mT92eeed2t289+dkzZ8m5x4/SF/+23P3bPvfvu+5eNH/+E/fa359u99/7OBQI//em1CYOBdu1au0D8iy8WVmy7gvDZs79wIf722/ey3XbbwQXn/py8dOlKN8/99tsl5r8BtI9+9rPfuBBjwoTf2OjRF7oQf8qU/wZT/GD+/O/t3HOvs06d2tu//jXW/ZLg4ovH2J13/sP8rwnUp+3RR//SNmzILZvPja7k5xfYcceNsv/+90M3jXfTTfe79VTryOOOO8xatWqZcHzYv/71qh177OXWtWtHty5jx17huqU59dSr7fPPF7hp1LL+ssv+WPa4xv7856vcdH379izbH1fZG2984KYBgPpmyZKVNmnSq3biibp4XP5rLZ3Hxoz5mwuu9bn5+uv321//eq37/NXFyg8//NxNp/OrzrM63+q8O3Xq3RXn37/+9amKz/Kw//1vpl1//T32q1+dYeecc2zZ98CmKZ1X585d6ELynj27uPP4eecdb/fco3PgkxXLe+65/5Ztz5VuGq3TwQcPLlunv7ouzwAAQHlW2+O0H1mnIXvahvnL7eXBY2zF/74MXt3Kyr67fTnhv/bGkNutxIqtxXF72YoO2RXZsi8+Y9ZjNKuO9V01paBc/Iw0cx9kN2vWrFKgHV5wKvy8/YaEg3K/jOrMHwDQcOiL7X777bpZ9ysKmHfcsbfr8iNs6tR3XKD84IM32BVXnOFaQqtbjcceu9kFoNE+zfWl+m9/u96OOGJ/N/199/3eJk58xWbOLP/iXxV9AVdY+s9/jnVf8rW866670AXZTz75QsKW6AqkX3nlHfvRj/Zz26K+wg8+eE+3jrFC7bVrc+y2235lF110sv34x0PsgQeus0MP3cu1wgtfAFAQ/NBDf7DTTjvSfvKTH7ltb9myhT3++H9iBhWSnZ1lgwcPcj+19yG9LkRoPdQtS5s2rVxgruBcAbpo2latWpSt+3ZuOEzrUN76r8iF0n5d7rnnd2Xrmh9M9QO1XrzhhovtT38a5faFno8bd4ULSr76apHbPm3nSScNLdu2G9z2qzzyyE2uyxcF8OE6GDpU++EiGz78QFf8vyXijfcUEj3wwGQ3jbof0LpovZ9++jbXpcxTT73k6lD1om5qbrnlMhcoaTr/XKERrcoB1HU6X26zzeFl37d+uJmnWnbrwuUdd1xd9loHN50uJuuz//e/P9+dJw87bG8766wf2113XVN2bmlecZ7TuUvnWZ3/dB7U56LOv7feelnZa7PdxdUwheS6IPrzn59QNt8zXUguqZxXdZ667LKfuuX45Sl0142xdc7U+ezRR59366sLtppG2/CrX51pc+eWX/gEAKAx89+H9LjfP262XmccbTlfLLU3Dhtn7579d9u0Ise9vjWsmfmtvbLPLfbRZU9aUf4ma3naIbb2qPJuu1XCubKKgvJoo+54kg7K/YJU/ALihdgqfuUSLTwW/57wRvllhAN5v4Gpzh8A0DA0a5ZthxyyV6XuVxSIqnXxEUccYC1aNHfjRD8Tnz79Ixc877PPTsHY8nPO/vvvagcdtLu9/vp7FWFx9+6d7bjjDi0715R/OZc99xzoWk7rC3xVcnPz7d13P3FdxCg4VZjvi1rEqbWdWlPHM3/+d2452j4F0XLggbu7blBi3dRTwe6+++4SDJnr7kRf+j/55EsX8Ho//vEhNnDgD/2E9+ixjR1++D6uO5H16zcEYzenG3IqVPDz0nxVR/5ihFrvq2W/ggkF4bNnf+laoetGn1Fq9f3xx/NcMB0O0lVXI0b88FM5T63Std/8+V6PakGowHnWrC9cNycffjjH2rVr444FX89vvfVR2b8hMl1f6QpzPC1TreSj4o33tB+1XTomtG/8cnThRMeiD1/at2/jWjU+8MAkFyppPTVfXRT49a/Pcf++AYC6LNbNPBUov/XWLNd621+w7dOnhz333Hh3UTKsW7fO7ny1YUP5RUp9Pup+G7ro6umz/IILTrJJk253F749dZl1zTV/sdNPP8r+7//OqjgPp3pe1TlIF3PD5w51HbN06SpbuXKNO3eoS7Hjj9cviFq4aUT/RtA5BwAAlJ8/XbDcroXteMcvbY8nb7Jm3TraN4/PsCn9f2/vn/+orX4/fgOwmlRaXGrfTf7I/nf0nfbK3rfampmLLGv77tbsD6fb0mEDLD/IrJUVKzP2IbnPkX1g7ranbLv8vxGiUvq2lii81ji95sPrRAtNht5b1fJ8WO43EgDQuOy554BK3a98/fV3LhTV+DAFy/qS3atXV9eCOqx582Yu0FW/pb7fVQ1HQ9PWrVu6bkb0BTvcP2ssahH+7bdLXV/a6vt06NALK8pZZ/3efclXv9uxKGhWaz5RiO8p1FYL+lg39ezRo4trdR6mAEMtmMN9uCskCJ8v9VzjVGfhm3FGbbttV1d3qmdtu8JhXTjo0KGte11di3Tt2skF6ArCv/zyG9fKPLpOUlBQ5JbVu3f3snN45X+GKHyPUvDctm3lfaHWjKoP3WR01aq1Lli59trxlepZ5Q9/uM+F1WvWVL+1g/an1vuCC27cbDlqab5y5Vp3MUGty3UTvEcemWL9+x9rO+/8E9f3Oa3JAdQXsW7mqV/pvPHGA+6c8uCDz1Q6D+q5fknzyisz7LbbHrHTT7/Gncf0makA+/vvl7sLq+FAOh7dI0JdeamlerirsVTPq+XfD4OBGPRrJdG5K0wXPjt3bh8MAQDQuOn7os9nlcG2GrKzDXzjL7bd78+1rE4dbcFD0+3V/W61l/ceY/MfmGZ5i3+4F0hNWffJYvv0uudsSs9r7e2f3GtLp35m2btuZy1/daKtumaErdimZcU6KiP2Ibmy4+bNm1fKkqMZsn8MqzIoD1eKrxi/QF/CobWfPtbCkhWeh19mdLl6Ht7A6iwPAFA/+fBYLcoUhqtF8U479XPja4uCdZ1/kvGHP1xiJSUzY5bf/ObnwVSVqVWyWr+rz+tddz2l7DxX/rP3Fi32d/1yK0CI3tQzHrVGT2Zd1WIv0XQKqtWaXj9rX7ZstX300TxX7z7oVqigixPqr1vhtW7sufvuO7rXUhErWE9EP+33pk17KGY9r1s3rdIFh+rQNn3++eSYy3n//Sesf/9tXV1ecskpNn/+FHv++fFu2ZMmvWb77HOGjR37aJV90wNAXTVgwHY2dOg+9vHHX1hOTq77PNMNsnv0ONK23/5Yu/baO23WrLnuV136NZDo4m9xcfKfe6NG/cx9nquPcXWxpfeHpXNeTYXOhTrPAwDQ2PmcVbmrzo/KZZXHKnRuecrBts0Tv7Ztx15qrfYdYGs/+tY+uOhxe77Xr21K79/ZjJ/9zb7865uuixS1BE+Wbha6/I15NufmF2zaj/9q/253pU3d/Q9lw/+xvLUbrcXhu1mLMWfYysuG2bKdt6nIjf36hQPyFi1aVBSts8+uq8qRk25R7hceXgFfNBxeULyFpcLPJ94yo8v17wEANB6++5X33//Mvv76W3v77VluWOPDFOgqVFXL6dzcyjftzM/f5Fq96afizZuXv0/D/ifjnlpKq8V6584d3PwSyc7OdK3S1Ye2b7WWLHWD8uqr77kwQDdGCxcFr0OG7LnZTT3Xrl2/WSt33TBTPz0Pt9JW365hCiAWLFjsWoT7Pmdj0fYqGFfXI59/Pt/VmQITz/djrhZ96g5F3d6oRWIsvm7UKj7ahYxaf0cpjFHdh+ln9grktW26GLDDDr3dT+hrk9ZZ4VC8XwJEqfsb9ZX+97+X/cNuzmTXt/rzz//XtawEgIZAvy66+eYHbMyYX9rGje/Yhx8+aU8+eaudeeYx7jwgugCqXxCpa67w/SJEfZcPGfLzss/vr4Ix5u79sP/+u9m55x5n998/yf1iSKpzXo3Fd2sW/tWV6N8I4e66AABozMLZrHJYH0K3bNnSlZL9+1v2TWdZ9/tHWbuTD7HmO21n+cvX2aKn3rePLv+HvbL3zfbPrIttcrtR9ly3a+yF/qPt5T1usjcOHWevHfhHm7rLTfaf/r+zZ7tdZZPaXWaTWl9mbw77s3163bO25MVPrMiKrdnufa3VTw+z7HE/t+U/29+Wd2lVKStW8QG5AnEF4379VMJBeTRHjiWpoDwcRIdXxBe/gr4Ca4qf35ZeLgCg/lBLZnWrohtEKuDea68f+kD1FOQedNCe9uqr79r7788JxpYHxfqiPn36x5X6MlVf3C++OL2i9a+m00/KFQSrP/Oq6Au4Avvo8kStwdVSXPOLUnCsvtJ32qmvCxp0Y7RwOeaYg+344w93QboCdU/zVIjvqRuZZ599022T+nP1NG/1z+rpPVOnvu1CCQW7iSgY37SpwF544S0XTEdb7asf81Wr1rkQX/sk3k/XVTf77LOLm49annsKK156aXow9IO33/7Ypk37qKJVofaJtk0XPnQhQN3hHHTQHjZlyv8qbZumu/nmv9mxx46qkXB6l136u35rdUO6cNij5xdddLPrt1fhzVNPTbUjj7zEdUPg6QJMogsRAFAf6Jyh841+udWmTUt3TtRnvW4e7X8RpM9qXVRUd1Oe7qGhc1b4Ztj6jNY5UvPRheowXZw966wR1q9fL5sw4Wn3OZvueTUedU+mftOjn+laz2TuRQIAQGMQzWQVNvswulWrVta6dWtXCvt2tZKfD7XSMWeYPf4r63jLedbu58Ot5ZBdLWuHnmbt21mhZVjeylxbP2+5rZj2pa2ascByFqy0/NUFVtQkyzI6tLOsAdtai2G7W+uLj7FWt55l6/58tq385RG2bNgAW93yh9btKj641/r4FuThdVLRsA/Kow2u4+XIKbUoD5doSO1LbQjPf0suFwBQ9ymwVSD829/e5b68x+rnWo466gA78cSh9otf3GB33PGEvfbae3bTTQ+4vk3Vgk1BtKd5qPXvlVeOs5deettNd/nlt9nFF59S6WZkiYwYMcSFA6ee+mv74x//7pb3pz89bCNH3upCBd2cM0qtrBVmH3nkAa4FXpTOd9qOXr26uPVTcC0KJc499zp75JHn7bnn/uueqy/Xiy76Sdk/Cn5oXa8bgZ533nUuGHj66ZftjDN+60KOM844uspzqYIM9Reu7l/U/7hvjeep/1nNS/3Sqo50cSKeU075kQspwuusvr8VgEdpvnfd9Q+3D7QvtE/uuONxu+yyn7p5qM/bc8451rVIPP74X7nt0nZefvmf7K9/fcp++tPhNdIVjy44qIWjgvCf/vRat87PPPOG/fznN7h+43UzO9WJLtQoMFc/u4899p+K/X7bbQ+7m8apr3cAqMv0yxl9fuqzyxedu4455peue7Cf/vRo9xmvezKsX7/Rfv3rO9xnooLqK6+8vezz+Y9lX05/6I9cXVDpPKuLiv78q3O2lnH22cfGvLCqz9zzzz/RnReef/5/blw659V4dHFY53R9futCp84b9903qWzcGNf6HQAA/EDfFZXFRluVK4xu06aNK+FweuOg7rbh6N0sd+SRln/DKZZ3y2mWO/YM23jnObbx3vMt96FLXMn567m2/vaf2foxp9q660+2tb/+sa382QG2bJ/eruW4D8T9o0q4exW/HuGAPLw+4dbkeq+2oSpJB+WeD6ajpbbFWqYKAKBx892vyKGH7h03oFWg+qc/jSr7Qn+uTZw41d0M7MUX37Lbb7/Sxo69wr3u6efd48Zd6Vq8nXnm72zSpFftttt+Zb/61c/KTrDJ9U+uG4Q9+OD1dtVVZ7swWMubOPHlsi/hP3HrEeumZmoVp4BCXXbE695F/WAfccT+9u67n7iW73LBBSfZ5Zf/1O69958uuO3efRv7xz/+aIMG9XWve7///fl2wglDbfTou93NL488cn+7//7Rm93MLBaFCrvttqMLg/fdd+dg7A/0ui5U6Caoal2eiJan5Wr5N9xwr40adZvr//v22/8vmOIHAwf2sb/85Wp3I9HTTrvGXRR44IHr7PTTj6r4d4ACkueeG2+77LK9C0x+9rPfuq5nHn98TKXpqkPzUOj+3HN/cf/I0gUWhfs6HiZNur3sGBzsplNr+0cfvdkF4tddd7fb788++4bdcstlbh9V1W0PAGxtukeGbob8m9/cWVF0fjr55GHuhp66OC26MPjggze4G22ecMIV7oKyzm0vvXS3++zVL2vUWlvjdJ695przKs6/H30013XTctppR7p5xaKLxqeeeoRrVa7P9HTOq4noc1uf3zrX67zx8MPPunnroigAACjn81eFzD6wDrcqVyjdtm3bsu+B7dxjOKj2XZ/4UFvvU8it4gNvPcYq4Wn0PhXNQ/Pz3aqEw3Et2y8/vGwflEcbXceTUep/ywwAwFag09DLe55taz+eZyesvsOy27cMXkFVFE6ohbX8+c9Xlf1DIPYNyNQlypln/tYOPHAPGz36gmAs6iLdMX7tzEXW7K6zbX3ZP/T0j0H9A1T/8Gzfvr179K0jfKuIZFpGAGicdI5968SrbfGz/7MjZv7eOuyxbfAKqmveX163j6982lqedoitGr6L+yLvAwN9XqvouT6v9Zo+s6v6cg4AQF2lf1OolJSUuBt1FxUVWWFhoSsFBQW2adMm9+if+/GaTkXvUdH7Vfz8/LzD/LnSh9v+O4+Ceh/WhwN1H6b7575ouvB3pmTOw3yzAgAAAAAAAADE5ENmH1grpFY47Vt4h1t2+9blvqGPHw4XTetbf4eLHxd+VPHv8/MLF43379e6qLGRgnKto9Y12ZBcNgvK582bZ3vssYc98cQTwZjK8vLy7OKLL3ZFzwEAAAAAAAAADVc4LFdr8VGjRrkQu2PHjta1a1fr1auX9e3b14YNG2a/+c1v7PPPP68It/2vrRSsz5kzx2677TY79dRT7eijj3YZ89///ndbsWKFm58PwP17fOAefq4SDsj1q65w9y5qSa6Q3K9zMiG50KIcAAAAAAAAAJBQOCzX46BBg2z06NE2ZswYu+mmm+zGG2+0008/3ebPn28jR460WbNmVQTbanCtaa677jrr3Lmze8/DDz9sl1xyiS1fvtwuvfRSe/HFF11YHg3F9dy3KtfrPhz3Lch9QB5tRe4fk0VQDgBAPaU+ye+553euxOufXDp1alf2D44J9E8OAAAAAKgWH5ar9O7d2y677DK75ppr7Nprr3WPCsOfffZZ23XXXe35559306kf8vHjx9uyZcts4sSJdscdd9hJJ51kRxxxhJ111ln2yCOPuBbqevz2228rQvFwMO67VlFArpbpPiBXOO5bkCsY9+G4SqpqJCjXBlx00UXWp08ftwFqNv/qq6+6ztm9jRs3ugoZOHCgW9Ef/ehHNnnyZNehu6xatcqGDx9u9957r/3f//2fa7KvKwo5OTnudQAAAAAAAABA3aGc1wfU/gaa2223nR1yyCGupbi8++679vrrr9uvf/1rO+CAA1zY7VuF61Gtxs8++2zbf//9beXKlRWhuC8Kxn047luO+4BcJRqQpxOSS7WDcm3wL3/5S/eoqwGTJk1y/dHoqsAbb7zhplEfM7/4xS9cv+fqo0YhuirrggsusNtvv70iLBc10ddVBl1BOP74413FAAAAAAAAAADqlnA4raLAWlnvunXrXJitnPftt9+2wYMH25AhQ1wr8GhRAK5w/bHHHrNTTjml0msKxn047oPxeOG4SnVUOyj/8ssvbcGCBXbrrbfaiSee6JrM++cffviha1X+3HPPuSD9X//6l51zzjmuU3f1R/OPf/zDhee6gag3dOhQu/76613rcpXqbiAAAAAAAAAAoPb4oFp9kSvwVv/jBx10kAu4lR/369fP9TWuLlJ82O1bhkeLf91PG+5WJVY4rlITqh2UawN1leD+++93HbUrGFdzebUIV3P6/Px8mzFjhnXr1s1VyptvvllR1NJcr6tjd2/AgAHu/QAAAAAAAACAumnq1KnuxpzhwFq9g6iL7hNOOMH1JqKQu7i42GXD6j4lHHirEbUPxX3RTUA3bdoUMxSPDte0agflCrbVabuC8e2339522mkn18e4b02uqwjqw1wbrn7JDz/88Ipy5plnuvB80aJFwdwAAAAAAAAAAHXdoEGDXM8gf/zjHyvK3/72N5s7d6499NBDts022wRTmruRpwLwcNDdv3//ivfpJqBqgS7hacKltqUclKtfGV0F8JT066ab6n5lypQprtN19VO+995729ixYyv6H/d9j8cq6rccAAAAAAAAAFA/9O7d2zWgvuaaayqK7lOphtXKjKVNmzauYbV6ItmwYYMb5ylH9u9Tw+tddtkleGXr2Cwo18p36NDBtfRWiB21du1a++qrr1xzeXW07rVt29Z+/OMfu/5nPv/8c/vDH/7g+iZftWqVdenSxc0vJycnmBoAgNhKS0oolEZbAKA2xfrcoaRXAABAcnQjzoMPPtimT59uM2fODMbWTRmlkTRcTeDVt/h///tfe+CBB2yfffYJXjHXOvzvf/+7S/jVlYqC8aeeesoefPBB10d537593XSa5b333muPP/64Pfnkk/bqq6/a6NGj3bBu1um9/vrrdvnll9sdd9zh7nx6xhlnuCb2mhYA0DjonPHynmfb2o9/uLEz0Ng1u+tsW9+2rWuUoD7+1CBB94XRfVw0rL791ELD99sHALHoHPvWiVfb4mf/F4xBTWt52iG2avgu1qxZM2vZsqX7vNZntT6z1QhNn9cKCPSZvaV+Ng4AQG1TV9tXXHGFLVy40J544gnr1KlT8EpsGzdudHmzuuq+6667XE8k4XOiuu9+8cUXXeZ82GGHuaxY59AtbbOgXNQi/LzzznOtwBWG77zzzq41uALvd99910aNGmVjxoyxVq1auWnOOuss9w8BBd09evSw999/3wXl6nz9yiuvtJUrV7pO3KdNm2ZXX321C98/+OADF7oPGzbMbrvtNndTT4JyAGh8fFBeuD6nbKB8WC21dKKsaLmlM9Xmpyugwcq8/viKoFz/3vKhiw/KNZ6gHEBVfFC+bvZXnGNrSbNhu9vqo3d1YXg4KFchKAcANFSpBuWyYsUKF4T/+9//thEjRriiHHnevHn2zDPPuBuDapz6Kt9jjz2Cd21ZMYNyWbx4set0ffLkyfbRRx+5k7xC7PPPP9+ttK6YewrL//SnP7kg/ZtvvrH99tvPheknnXRSxXSrV692rc7VNYsqYM8997RzzjnHzU9fANVFC0E5ADQ+Og3pC7t+taRfNelKsy7Oqquv9evXuz7MdBIuLCx006kADZlCFN0ZXqGK/h2lfyf5FuV6JCgHkCx/jtU9pnSOzc3NrTjHrlu3rtI5VtO4IJ3QPGk++NbnsQ/K9b05VlCuz3WCcgBAQ5FOUC763q9G2Go87XPk7bbbzrUiVy58yCGHVMqct7S4QTkAAFtC9Eu8gnJ9cdcXeAXlGtavjvyXeP8eoCHyAYrC73BQ7oMXBeUa1niCcgBV0flSRV9KCwoKKoJynV91ntU5Vl909TpBeWr857UPyrOyslxQ7rvL0me27ypLrxGUAwBQ9xGUAwC2Kp2GfFCuL/H6wq6gXF/kVfSlXgG6b1HOaQsNnQ9Swi0UffCiRw2Hg3JCFwDx6JypoiBc59FY51hdjA4H5UiNv2Cpz2t/Xwn/ma3Pa40jKAcAoH4gKAcAbFX+S7y+oOtLvL6w64u7vsj71uQKyvU6QTkaAx+kKFTxwYtakfuiYf8zfoJyAIlEz7G++xX/6y1/jlVQzjk2PT4o18VLfT4rHPcXONWanF8AAQBQfxCUAwC2Kv8lXl/Q/U/D1eJNxX+B992u+GmBhswH5QpU1ArRh+W+ZaKGaZ0IIBmxzrE6t6roPBs+x2oa/x4kx3/++qBcn88KxhWQ+5CcC5sAANQftRqU5y1eYdNG/J8NmXK7teixTTAWAIDK/Jd4fVH3X+T15V2P4S/wmo4v8LXv24mv2rpP59suN14YjMGWFA5eFK74sNwXH5L70IXgBUAisc6xvugcG21NXhfOs8vf+NCdi/a655pgTN0U/rwOh+Xhz2uN48ImAAA/eP+CW6zj3oNs+4tODMbUHbUalG9cuMSm9D3BRiz4t7Xq0z0YCwBAZToVqfgv8io+IA9/ga/FUxZC5t7+hK1+5xM78F9/DMZga/DBiwIWH5jr0f+En9AFQDLC51gVnVd98efcunaOXTTxVfviz0/aj2Y8FIyp2/RZHP681ue0D8hV/Oc1n9kAAJi9cfgl1uWwvWzn688PxtQdBOUAgDrBf0n3X+RV/Jd3PffToPZ9/sdHbOVbH9uQKX8OxmBL82GKD198AOOfE7gASEWsc2y4+Gnqim+efKnsXPSoDZ/9ZDCmbvOfybE+s8OvAQAAgnKCcgBAUvwX+VjFCz9H7fjs5ods5bRZdujUO4Mx2JLCYYp/HitsCU8HAFWJnlfDxQs/35oWPvaCzRnzsB0zd2Iwpu6Kfib7z2l9boeHAQBAOYJygnIAQJL8aSn6iC3nsxv/Ziv++5Ed9tqEYAy2pnDAQuACoDrqyzl2wSP/sTk3PWg//mpyMKZ+iH5ehx8BAEC5uhyUl1/mBgCgjvBBoC/+J8yULVeo+7pVwvtDjwCQLv95Ev5cqZNF61f2X8zX6nCJ1q8KAACoP2q1RXnh+o02/4F/W78LTrCstq2CsQAAoC5b+fZsy/tuuW176o+CMQAAbDnrPpvvzkXbl32PBAAADcu3E1+1Fr26WOcDdwvG1B21GpQDAAAAAAAAAFDX0fUKAAAAAAAAAKBRIygHAAAAAAAAADRqBOUAAAAAAAAAgEatVvsoLykpCZ6lRncMBwAAAAAAAABgS6ixoPzZXkdZweK8YCh5x+e/GjyrHJDrOYE5AABbXs6X31rB6vXWab+dgzEAAGw5ud8ttw1ffWddDhscjAEAAA3Fqnc/s+yOba3NDtsGY+qOGg3K+19wirUZ1CcYU7V3TvutHbXm5UqheGZmZsWwH+cfAQBA7fv0hgdsxX9n2uFv3BOMAQBgy1nw8BT77A9/sxEL/h2MAQAADcUbh19iXQ7by3a+/vxgTN1Rowm0Mvfep/4oqdK8Swf3npycnIqSm5vrSkFBgRUVFaXddQsAAAAAAAAAAMmq0aA8IyMjeJa8lStX2ooVK2zVqlW2du1aF5hv3LjR8vPzK8JyAnMAAAAAAAAAQG3Z6n2aLFmyxJYuXerC8tWrV9u6detsw4YNtmnTJteynKAcAAAAAAAAAFCbaiQo90F2Ot2dL168uFJYvmbNms1alAthOQAAAAAAAACgNtRci/LS0rS6Xlm+fLkLyNUFi1qUr1+/vqJFeWFhoQvLAQDAltMks6llZGUGQwAAbFkZTZtak+ysYAgAADQk+q6Z0XSrd3IS01ZfK/VLrnBcXa7oUX2U5+XluRblvtsVWpMDALDl7PT7n9thL98VDAEAsGX1OetoO2beP4MhAADQkOi7pr5z1kU1GpSn0/VKbm6u62pFjwrIfUvy4uJiWpMDAAAAAAAAAGpdjQbl6XS94oNx382KikLycGtyWpQDAAAAAAAAAGrLVu96RSG4D8ejATkAAAAAAAAAALVtq3e9ovf4onC8qnlMnz7dtVy/6aabgjHxaZqLL77YdekSNW/ePNtjjz3c/NC4aJ9r3+sYeOKJJ2z48OG2atUq95qOFR0zOsaixb8HDZs/BvT5oeNCx4eOEwAAAAAAADRcW73rlVjitSZXaJVMQA5U14033ljpIs5bb70VvAIAAAAAAACgodnqXa8kS62AO3fubFOnTg3GAOnRcTRo0CD32KdPH1datmwZvFquX79+wTM0Ni1atLCePXu6Y0DHhT9GgMZkwUPP28zLxgVDAABsWYtfeNum/+TaYAgAADQk+q6p75x10VbveiUZTz31lB1yyCHu+WmnneYea4PvjiXc3YbvmsW/5lu0h7tn8PTcd8+h94W79BB13xCepx41HKuVvMaFp5VY3YIkeq9KuLsQv/xYJdZ8RO/RMn33NZrOzzP6mmh9w8sUX3d+WdH3xFsvP53fbk0nvjsMjfv444/dvMP1JJo2Wv+eAvKddtrJhaB6PmDAABeOpiNc1yrR9ZBY0/htCo8PFz8fPYbHR+s2Om+V8Hb7uvLz8/sivL+rWkaUn2f4Pb745XjJ1E9UdH1UousUq/78NsU7nlT8NNFt0LzCx6RCcoXjOi50fOg4ARqTjYuW2rpPvw6GAADYsjYtX21rPpwbDAEAgIZE3zVzv10WDNUtdbLrlVguvPBCy83NtWOPPTYYU7MUwimEnzBhQkV3G48//riNHDnSvaaw7J133rGcnJyYIaLG6TVNo2mjFMw99thjwdAPdt99d/v+++8rgk3R82igqBDviiuucC1d/frNnTvXJk2aVBEgi4JAvXflypVuGm3PwIED3bgzzjij4r3qWuSiiy5ydarh0aNHB3OIr6ptjEXL1fKvvvpqtxwtT7Qt4WAyvC4qqvt4XnrpJTvrrLPs3nvvtR133NH2339/e/3114NXy+tq2rRpdtBBB1mnTp2CsT/QOG2vD0G1LqnyQW24rtU9y8EHH1yx7/w02r9+27TPdEzNnDnTrb/G6f1HHXWU22a//Vp3zUfT6j1+/Mknn2yjRo2qdLyE606PCnjvvvvu4NXKJk6c6I4Jv7+TXUYs2l7/Hr8NXjL1k0h4m6Ld3mjeif4WqjrOtV2aRnXsp9O8TjzxxIpt9q+LlpXs8Q4AAAAAAID6qV50vXL66afbPffck1ar3/vuu8+1HPYtR31ReKvWyN4HH3zgAtfBgwcHY8z23ntv96igT7R8BduaNkrj9Fq8dVRwqUBO04R169bNhXAK+jw9V9gZDh4XLVpkCxYssFNPPTUYY9a7d2+3zvPnz3fDCrIVFioM9AGxwj6FhQrpFTBWh0LWRNsYpeVpuVq+gkfRexU8zpgxw4XFqVKQOWXKlIp9o/kNGTLEha8+5FRdaf5Dhw51w6lQoLpw4cIqu9rQumsZ48ePj1vXfp9pe32daV/PmjWrIoRNROG/QutwSKttWrp0acUxGaXlKPRVOB/d3zo+5syZ4459L51lJCOZ+klXMn8LiehCi1x66aXuUfxz/xoAAAAAAAAal3rR9Up1RFsq+6IwOhxaK8hVC18Fjb7rhmiYLgpoNU7z9KLhbZQCSrWKDQdzYermIdwiWs+PPvroYKicgkz1z65HzU9dUegCgC4EeArrFbyHg1BR8KnwN7zOqdI2KmSNt42x+NA52t+3DzXD25ws7bd27dq5eXhaJwW7/mJDvHqoSdouLSPaJYfqWgGxwlyth46jdLvt0AUP3/Lbd2GiFtmJaD/pooHCch/Oe1ofdTkTbmWfzjKSkUz9xKP3xlp/L5m/hXgU0Mf6tYGea1wyQTsAAAAAAAAannrT9Upt84GbtuHMM890wXY0TBeFc7/4xS9s2LBhLpi77rrr3PMbbrjBvRbLxIkTXfgYL7jVjSV99ysqeq5xYQr41JWF1k/zUStgBdG6EBCmAFHhpKbzpbrBp7ZzxIgRMbcx2mI/1rJq6kaI2i9qjXzHHXdUClG1TqoPBe/xgtBk+W5Ckgm3tV3a9kSSmSYeBd6+XvVLAR2P0W5IJLwP/HpHL8povygE9qG4l+wy0pHutms9E91MNdm/hUT0d+u32xeNAwAAAAAAQONUL7pe2RIUZquVswI3BaXxusZQa3P1Zf7www+7YE5dSTz99NNuXKy+lxU8qiV2vNbkokBXLWg1rYqeR0Ne35WFXtf6RQNPT921+LA3XNSlRDrBsWg71WJe/VaH+0OXaIv9WCGrWgjHkigMjUV9eKtv8gMOOMBd2AhTS2XVv68nDadDdafQNJmgXNulbY8Kt6SON01VFAb7bmtUr+quJd6FmOg+UB3pFxK66OJpv6i+wzf6TGUZ6UimfqK0TrpQlOjiSrJ/C4n4bY6WdOYFNERdDt/L+p5XO/cEAQCgKh32HGA7XvHTYAgAADQk+q65zWE/dH1dlzT4rleS4cM59XUdbqmsrirCXa8onB07dqy7MWU4UNRzjVPXFeFwUhREqjV2VSG1gt1nn33WTR8r5FXoqCA/3OWI74vbU7gYq29phdtqgavtTJfWXwGs1i+6jfGoNbHWKdqdhV/vRGFoPOpDXvWgCxthvrW+WpVXp9sV1XMyrdHj1bWWr9f8tqfb17cCZq1L9FhIprsadUWjv8XochWSi++HuzrLqEoy9ROL73880YWKZP4W4tHfd6w+3PVcfyPRC0FAY9Xl0MHW5+xjgiEAALas9rvvYDteflowBAAAGhJ919R3zrqIrlfK+PAsHAL7UFwUzInCWQV0J510khsO8yGkbtrpqRsUvde/loiC3dmzZ7vn4RuKegoX1cWGWtOKgj11QaIg34d+CnjVDYVafke3QyF3vD6fk6Xt1nqEtzERLU/LVZcWPoD06616jLWdVdE8dXNMdRMSbsGvYFvbr2Wl2+2K6izehYooH9iH61rro+X7uvbTaHt9KKtpdTxUFcj6oF3r49/r5699nih8j9c3uupELaZ1POi4qM4yqpJM/cSide/bt2+lEDwqmb+FRPTrDv1djhs3LhhjNnny5KT/VgEAAAAAANDw0KI8cNVVV7kATuGiQkZ1pTJhwgTXlYlaRFcV8vkQUtNoWk/TJxPa+qA32qrd02vqekR9TWv9FHJqWnUhoYDPd3GhddC0fjsUwGs7NK66tF4++A5vYyJarrrIUDjr11sXJfyNU9Ph+ySPtuD3AXcyQXeUgmP1Na+LG76Ow0XjFMTquNC0WndtQ7iuR44c6bbV17WfRtur7dY0mlZ1qK5REtF7x4wZ4/atf6+2V12oqN98jfei/cSrrsePHx/zuAuH95LsMlKVTP1Eadnqhz5Wv/fhutf7k/lbiEf1ogsVOob9MnSxQOOS+VsFAAAAAABAw5NRWgPpdklJiT2/7XDb/oJTbJcbLgjGJrb8zQ/tjcMvsann7WJZWVku7Grfvr117drVunfvbj169LAuXbpYu3btrHnz5padnW1NmtClOuJT0Jlu4KkA9vLLL7c777wzbj/dyUyD9Ckol1j9hFP3QHzrZn9lb5/+O+t/6U+s7zk/tsw26d1AGAAAAACAxoyuV9AgqLuNadOmJd2CHwAaitzFKyxn7jc287Jx9kyX4fbBRbfa2o+/DF4FAAAAAADJoOsV1HtqiaxfJKiLk6q6NEHdpZbksVqTi1qRq1scWpMDm+s+/AA7YOIt7mJ1SX6BLXz8JZu6x5n26gG/sIWP/MdKNhUEUyZv48IltmbWF8EQAABbVv7SVbZqxqfBEAAAaEj0XVPfOesi+jJBvadwVRdp4oWsyUgmiCWsBVBXbfuToXbgpD9aRtlZvTg3341b/eHn9t4Ft9iz3Y6xj6/5q238Zqkbn4wFD0+xWVeU38sAAIAtbclL79g7P/19MAQAABoSfddUo666iK5XAABoAHqdeJgd+C+F5ToXZ1hpYXFZKbKCtTn21V//af/pe4L996hRtnjKW1ZaUlL+phh035FS91/582QLAAAAAAD12Va+meelVpjdpCJg18069Tz6KITwAABUraSgyIo25gVDEQrRS0qtVe+uNvDac+yzMfdbweKc4MUQ/y+DOKfe4/PfDJ6Vn7s9PQ8PAwCQDv2y6bM//M1GLPh3MAYAADQUbxx+iXU5bC/b+frzgzF1x1YOyi+xWUN7W9OmTa1Zs2bWqlUra9eunXXo0ME6duzonqvv6ezsbMvMzCQsBwAggeL8Avvshgdsw/zvrbS4civvjCZNXEvyTvvtbP1HnmK9Tx1mz29/rPUvO3e323X7YKqqTT/5GjtqzcsVgbgedY72IXl4PAAA6SAoBwCg4Wo0QXn/C09NeiN9UD71vF0sKyvLBeLt27e3rl27Wvfu3a1Hjx7WpUsXF5Y3b97cheV86QYAILaiDXn2+qEX27pPvrKSwqLykbq+XHaWz2rX2rY//zjb/uKTrXX/XuWvlXm211Fl43+S8kXuAxdNqgjFdbFbQbm/qB0OzQEASAdBOQAADVddDspr9FtsDWTuAAAgRQrJ3/zRSFszc64LydV6XLY5aHc78OkxdsKKqbb7uFGVQvLqWLlypa1YscJWrVpla9eutZycHNu4caPl5+dbUVER/ZYDAAAAAOodmnsBAFCP+ZB81bufueHsjm1t0LVnu1Z4Q6fdb9ue+iNrkpXpXoslnW7NFi9ebEuXLrVly5a50HzdunW2YcMG27RpkxUUFBCUAwCqpe85P7YRXz8TDAEAgIbksNcm2M7X/SIYqltqNCinD3EAALasZa+8a6vf+9y6/mgfO/jfY+2E5VNt1zGXWKs+3YMpYqtOkL1kyRJXli9f7lqVr1mzZrMW5UJYDgBIi75X6gbUAACgwXG/gK6jGTJdrwAAUI/1PPEwO/a75+2wV/5qPY8/xDKapnBqT/O8rYBcXa+oNfnq1atd9yu+RXlhYaELywEAAAAAqE/oegUAgHquRY/OwbPUpXORW8G4irpcWb9+vWtNnpeX51qU+25XaE0OAAAAAKhP6HoFAACkJDc31wXj/tG3JC8uLqY1OQAAAACgXqLrFQAAGrF0LnL7YNx3s6KikDzcmpwW5QAAAACA+oSuVwAAQEoUgvtwPBqQAwBQXUtfftdmnHV9MAQAABqSj6++yxY+9mIwVLfQ9QoAAEiJfkHmi8Jx/wgAQE3IW7zCVr71cTAEAAAaktUfzLGN878PhuoWul4BAKAR49wNAAAAAABdrwAAAAAAAAAAGjm6XgEAoBHj3A0AAAAAAF2vAAAAAAAAAAAaObpeAQAAAADUGe127W/9Lzk5GAIAAA3Jdj87yjoftFswVLfQ9QoAAI0YvwYDANQ1HfcaaAN/fVYwBAAAGpJ+F5xgXX+0bzBUt9D1CgAAAAAAAACgUaPrFQAAGjF+DQYAAAAAAF2vAAAAAAAAAAAaObpeAQAAtWLevHm2xx57uAvpKsOHD7dVq1YFr8b3xBNPVLwnlfcBAAAAAJAuul4BAKARq62L3O+8847ttNNO9vHHHwdjzKZOnWpnnHFGwtD7pptusscee8xWrlzp1k3loIMOqvJ9AICGY9PKtbb24y+DIQAA0JCsn7vQ8r5fEQzVLXS9AgAAatybb77pHm+88UYXdiv4Puqoo1xY/tJLL7nXohSET58+3UaPHm2dOnUKxppdeuml7jHe+wAADcviKW/ZWydcHQwBAICG5MNL/mTz//ZsMFS30PUKAACNWG1c5F69erVrUS5Dhw51jwq+1TI8EU2jMLyq6SQvL88uvvjiSl20qDW6p9BdXbaEX/dFYbyoixfN4/777694LVY3L9F5pTuN59ddyw/T+mu8Xvc0zs9TJfp6lLYtPL0v0fWJdosTnW+8+ajoNb+90W3Qa5rvu+++G/P1WNsY7WrH7x9Jpq5iTePXL5VlRSWqg/B8o/soPM9oPfsS3Z7osvQevdfTMnzx00S3Tarar9F1VUl0rHpVzTeWWMuKvi9W/aguNI2mDY8PF1/HVdWb39/R+vbzD0+veUXrwr/fLy+eZLbVH5P+9Vj1Hm+a6HaGi19OrDrTenmx6lolXDfROghvf3XqBwAAoL6g6xUAAFCjOnbsaM8995wVFxdXhN4+7JE+ffq4x2TdfffdtnTpUtt7773dsAKhK664wnr27FnRPcvcuXNt0qRJmwVib731VsU0vlV72H333WczZ8603NxcN020mxeFS8OGDXPj/XziTXPWWWdVTKPn1e0uRiHX999/X7FuWv+FCxfauHHjgili0zaGu65RHYRpPwwcONCuvvpq97rmL6rTcLC3++67u3r189FzjRN/4WPatGmV3vP666/b/vvvb7169QrGJKb9NXbs2Irl6HHkyJGb7cdU6YKLfr0Qluqywvv88ccfr1Sv9957r5tGwaTq049XXR988MGbBYfh41DPtR7hgFbr4ddL5eSTT7ZRo0ZVOn6uu+4696jXY+2zZPfrRRddVHFM6VF/j/obi8fPd8KECRXrp7+96HxjUb359+jXJWHa/tNOO63SfDW96mLRokWujjXO/92G56V9k2y9HXnkka4LqPC6av4zZswIhmLTPNQNVLKq2tbqfI6o/v24eMdiOp+J0WMxTOulv28tR+salWr9AAAA1Ad0vQIAAGqdgjgFlwp4FPpURSGMb1mpgFBh2oABA9xrCrkWLFhgp556qhuW3r17u4B2/vz5wZjkKPhVwNSiRQs3HO3mZeLEiW6+V111lRuW6DQffPCBm+akk05yw6JwS6+Hu5BJhbZfQaCCMr9uPpxWeF5VQBmP3qdwS0Ge1lE0f9WBgkNdNEiWfi2g92h/iF/nIUOGWPPmzd24RHzQpmDX71s9aljj9Xo6FPo9+uijLiD1amNZqitt//jx4yv2s/aP6lbzjLePOnfu7B4VQIouLijg9eslqltdHPLTiP52/LEX3Wfp7ldNo3A10TGl9dN8w2GpukdSQOuPzXT4v5vBgwcHY6ziYlh4u+NJtt769u1rbdq0qThORcvW8dG1a9dgzOb0maUw2V8cqo6Jtfw5ku5nYvRYDNNydWzEW3ZN1g8AAEBdQdcrAAA0Ylvi3K2W0b41bLT/8Xg0jYIa3+pRLUd9q0cFYwrd9ahx6k6gZcuWrnV4qhQkKVDytFwFggqXFBwqQFRYFA4E/TRqbaluZvQYnaa6/PZrOQpxwxcNqkMtiNUqvV+/fsGYcj5UU/iYLF3w6Natmwv4RC1Yfct/7Q+1VE4U0oWnD9Ow9nsyYWksCiXVqlvFq41lqR61/T5s9KIXEKJ8ffn36W9CRXwXHuF193QshP92/D7TeqS7X3Vs6eJGvOPXvx6db1X8306iX48oBPZhu1o9a7t1TIVvAJxIsvUmCsR9vWvdtIxw8B+lzxV97vgwO5GqtnVLfI6k+5kYPRY9rbPWx3edFZVK/QAAANQndL0CAABqTTgkV5cBicKpePQetRy94447XICj4vviVbCm1xQUqkuJ2pBMSJhqkChnnnmm2wZfoiG4D/8UYimE0zZGu3RIV6IAM1kK+tTiXYGa9onCWH/hQWGfWpYrZE3UWluBpfZhuB40vGzZsmCKclXVlecDvHDLWi/ZZaVC9ahAsioKcP0ytS3hlu2qI/+auspQqK9tSEcy+1XhqdZZy/MBaVWBZ6rHi47VdevWbRbAhvlA19eJtlnbnmwL5VTqbd99963ofsVfwNhuu+3cYyz+YouOj6oks61SW58jkspnYqJjURS4b7vttu5vO97ndSr1AwAAUJ/Q9QoAAKgVTz75ZEWgqQDLdwmRDgVIvuWs7/JCwZhaA/tWpTVBgZNaf4bFaxUdbv2ZapcvEu7TWCUcgitEVPinetNr1e3mIkp1GUuqQZ1aZKvLB+0TBZcKx/16an8raFOA6IO5aMCtUNTvx3CZNWtWpfAuUV2FKcA7++yzK73XS3ZZqfDHZFS0pbnfjypqva5uUtSKWseb7zIl1XXRcqP7MZn9Gu6jXMX3g53ogka8+cbjW+gnCo+1r3Rhxa9LKhfRUq03Bb+ikFytqHUsxPt70jEyZ86cpFtLJ7OtUlufI5LKZ2K8Y9FTFz/ffvutG6+LdVGp1k+6tjtjuA3/9B/BEAAAaEiG/OcOG/Sbc4KhuoWuVwAAaMRq6yL3O++84wI4SbYluW9hqsA1SgGSb72r0M63XPYUgCkoSlW0iwwfPqrLAYVXCrEUnCuY88LdUcSbproUYClsDbfY9Mutjnhdovj6S7XlsPaB+oB+9tln3b8Do12bKLDzoZxKOOD2waIPGj1to7qaSRTcxqIWwwrw9N6oml6WqK6i/WGLWtb7YzUW3+WG9kH4eAuL1VWK1jW8nlqur/Pq7NdE3c/Em29VFEa3a9cubh34C1LhCyui92k/ViWVehOth8LxF154waZMmbLZcRqmgHjEiBGVurlJpKpt3RKfI+l+JoaPxTCtjz6/dbFOn8thqdZPuppkZVpmq5q7OAgAAOqOzJbNrUl2VjBUt9D1CgAAqFH5+fmuNbkX7TYj3HoxTC1C1WVAuD9y0fRqiazgRgGOgjt1H+FvUKhgSd2yKGBLNWjSe3yXLqIb1Gn+/gaD6sJDYdO4cePcsGga8YGsn2by5MluWBSAKfSPhkzJUrCrENbf6E/8DVEViikoTIcPwFSffj/4+lPQFr6xYjI0P4WdY8eOdYF5OKiriva3un0I72+Fh2rFqnVMNYjTOsQL8Gp6WaK6Up2NGjWqIsDWfg8fq7GEA1IfRCt89Megn4eOzXB4rX3vjz2/z9T9hbatOvtVQa/+LmO1iA7PV+vlaRnxLjBoueqOJxqCh2m8gmFtt5+H9ov2oegYTySVevMUjj/yyCO20047xW197v++Yl1siSWZbZXa/hxJ9zMxfCxGKUAPd3klqdYPAABAfUPXKwAAoEbpZ/vvvfdeMJQatUBWoKmW1D5YV3imn/v7Vul6VCt139euQjMFVWqtnGqIrG4GFJppHpqXQiUFQz700muvvfaaC5P8+miaZ555piJc9dMotPPTKJB9+umn4wZyVdH7JkyYUOkig2i7Y7ViToXqT/WpetV8te0KLdW9i6ivY9WtQrJk1l8BpFrrVhUWxqIuP8L7W2Gtgtl0uunRvkwU4NXkskTbqjpTfWpemqf2e/hY9cL9Qmtava7lah5jxoxxx60/BhXeq3sM1Wk4MFaXKTk5OW4av8/CXWwk2q/h/RLuo1xF048fPz7uxQI/X22bf4+OdYXl0fcoeD3xxBPdMqIXyBRia/wVV1zhgterrrrKBby+7k477TR3zGs/VtWCPZV683QRRxcN4t2g0tMxkcyFk1S2tbY/R7SPkv1MjHcsxhIrvE+2fgAAAOqjjFL91rKaSkpK7Plth9v2F5xiu9xwQTA2seVvfmhvHH6JTT1vF8vKynL/oGvfvr27K3337t2tR48e1qVLF/dTxubNm1t2drY1aUIDeAAAagLn7vJWsfECPyRP4V91LwwgMYXA0Ys4dZHCY4WuCvAVwEbpb00tsOv6diSjMW1rMubd8Q9b8p/p1v/Sk63n8YdaRlO+twEAgPqHf8EAAAAgbeoXOtnW5wAapoJV62zZa+/b9JOvted6/dg+u/FBy1uS/i9fAAAAtga6XgEAoBHj3I10qcWsjh+1dFY3GoB+maF+9WO1sBa1wI52BVNfNaZtTcauN19sO1x2qnuev2yNfX7rw/Z8rxH29k+udQF6qpa9/oG9f+GtwRAAAGhIPvn9vbboqVeCobqlRoPyGujFBQAAYItQkKWgi25X0qP607/9GlMYuLWoew/qGXXd4Dv/z/pdcIJ7XpxfYKUlpbb4hen25hGX2Qs7/MS+uPNpK1y/0b1eldxFS23ZK+8GQwAAoCFZOf1jy5n3TTBUt9D1CgAAAACg2va5/zfW7/zjLSO4P0VxXoFaU1nO/O9s9rUT7N9dhtv754+xtbO+cK/Ho/toqAmWHlMpAAAA1VGjN/Psf+GptvP15wdjE+NmngAAbD3+3J36zTwvtcLsJhVdtujcrOfRR/GPAIDGpTg334o3FQZDlSlELy07B3Xab2fb/U+/tDcP/2XwSoj/hhrnNJLdvbUdvWBKMFR+Lor1CAAA6h7lwV0O2yvpDHlLqtGgPPUv2wTlAABsDdU5d88a2tuaNm1qzZo1s1atWrlzdYcOHaxjx47uuc7pOm9nZmYSlgNAI5P33XKb/bt7rDhvk5UWV27lrXNCaVnpfcow63f+cdZ12D72dJP97KBJfwqmqNra2V/ZVw9MtMM++6f7fui/I+qc44fD4wEAQN1CUB4DQTkAAFsPvwYDANQ09Tf66gG/sKKcXCspKnbjfAvyVn172A6/PMX6njvCsju2da/J0xn72uFv3OO+MCfj0xsesC8fmGh7z3ioIhDXxVt/gdYX/xoAAKhb6nJQXqP/cqDVGAAAAAA0PuvnLrRXDzzfCtZucCG5vhs2yWpqvX96pA2bdr+NmP+MDbjyZ5VC8nSVlJTaypUrbcWKFbZmzRpbt26d5eTkWG5urhUUFFhRUZG7IKwCAADqll4nHW4d990pGKpbajQor4HG6QAAAACAekQh+WsHXWAFq9e7m3e22WFbGzzhajtx1au2/+N/sM4H7x5MWTP0vXPJkiW2fPlyW7Zsma1evdqF5Xl5eZWCcgAAUPfscNmp1v3oA4OhuoXfogEA0IhxkRsAUF1f3jXRijfmW59zR9gR7z5kx3zxL+t/ycmW2aZlMEVs6YbZpSXFtnjx4oqwfNWqVbZ27VrXqnzTpk2VWpQTmAMAgGTR9QoAAAAAIG273XKpnbj6Fdvv76Ot4747B2NrT0mpuW5X1P2KQnK1KF+/fr1rUZ6fn0+LcgAAkBa6XgEAoBHjIjcAoLqy2rW2pi2bB0NbQNn3TvVNrlbk6nJlw4YNtnHjRheUFxYWWnFxMa3JAQBAyuh6BQAAAABQb5RYqbtxp4Jx/6guVxSS05ocAACki65XAAAAAAD1R6m5UNz3R67n0ZbkhOUAANRNGxcusfzla4KhuoWuVwAAAAAA9UZp2X8KxcNF30UJyAEAqPveO+9G+/qeScFQ3ULXKwAANGJc5AYA1Ec6f/niEZIDAIDqoOsVAAAaMc7dAID6yAfkPiwnJAcAANVF1ysAAAAAAAAAgEaNrlcAAGjEuMgNAAAAAABdrwAAAAAAAAAAGjm6XgEAAAAAAAAA1LqDJt9mA686IxiqW+h6BQCARoxfgwEAAAAAtpTsDm2saasWwVDdQtcrAAAAAAAAAIBGjRblAAAAAAAAAIBGjT7KAQBoxDh3AwAAAABA1ysAAAAAgAbq5ptvdt9TfZk+fXrwSmI33XRTpfddfPHFlpeXF7wKAAAaIrpeAQCgEdOXfwAAGqJbbrnFrr/++mCo3MEHH5wwLFcYrlD8+++/t9zcXPfLKz3KFVdcQVgOAEA1zbn5Iftu0hvBUN1C1ysAAAAAgAZl9erV9vbbb7vnb731lvuueuONN7rh119/3T3GsmjRIluwYIELxVu0aOHG6VHDM2bMsJkzZ7pxAAAgPctee9/Wffp1MFS30PUKAAAAAKBB6dixo02ZMsWKi4vtoIMOCsaW69evX/BscwMGDLCpU6e6x6rMmzfP9thjj0pdtIRbq+t5+DVfhg8fbqtWrXLTqIsXX/zrsbp5iS4r1jSap+btpwkvJ8q3nH/iiSeCMeW0HtF5p9oNTXQ9wiVcP1Wtb6L5aJ0k1vr692nbYr2udVBdqk69aP36+Xt6T3T9/Hv8Nml5seouuqzodlVVn57m5d8T773R7VAJ13ky25HuNGHhuvDvDdepr4Oqtl3zCW9L9HgN0zqFpw2X8HKi9ei3SaL7xpdYx0P49eg+9tt///33V0wTq74S7a9YdaRHDSdb916s4zDKzzu8LirJbnu89/vitytR3fn6SOVY8csNHxvR9/jjyK+D+PVIdEwlWyfR/RhrXeNNE62PcPHTxFqP8DpE5+1LeNu0nPBxE66T6GsSq84aC7peAQCgEePXYACAhs6HCNddd51ddNFFdtJJJwWvJEchxR133GHdunWzgQMHunGa52mnnWYTJkxw51KVxx9/3EaOHOle84466ihbuXJlxTRq3R6l9RK9HqubFwUVWu7VV18ddxotc9iwYXbWWWdVLEvPzzjjjLiBWjIUxoS7odG2LFy40MaNGxdMEZ9vye/fp7rw/PrqIoafRs9jra/q1U+j9dA+9IYOHepa+uuXAN7cuXNt6dKltvfeewdjEvP7Mly/2uZYYVcqNN9JkyYFQ+W0bdrG8Hb37NnTTjzxxKT2U7gu/C8kPL8dVR2TW5ouOmmdVBd+Pe6++273OGbMmIpfbkTp2Bs7dqzbn9oWPWo4XrAZrlNtd/hv795773XTaJ/q78mP1zEaqzumcD1ruVp3P40eVad+vVROPvlkGzVqVKV9eN9997lfoPi/nejxXdX+6tSpk40fP77SL1kmT57shjVerydD84oeh4n4v9vo35ok2nZNr3rWOP/3Hq5HbX9VdZfusRL10ksvuQuenupdfy+PPfaY+5vWsnR8aZxeq0pVdVLV57OfJryv9XevaQYPHlwxLt5xq+k0vZ/OH5PRv4XwZ66e6+/F12OYtn/atGluOdovUXpdddVY0fUKAAAAAKDBUhjw8ccfu+fRUDURBQwK2Fu2bLlZOPXBBx/Y/vvv70IOzwezWl4qFIxceuml7nm0mxcFLQoswoFOrK5g/PqELwJoegVGyQZqUQpLFPAocPcBlealYEVBcnVC5IkTJ7r1veqqq4IxVlEHWudkKXzSBQxtv6eudTTv3r17B2MS8+vi6y5W/aZKdaOLK/7Ciue3zW+rpLPdsdTkMVnTdMwoEFWdvPLKK+7i0OjRo+Memz7cVbDof92hR4WR+nvQsZkq7cvo37HWKxygxtK5c2d3jOkCkej40raEf3WiCza6OBOu5913390dR/5vJ7qfk9lffpsV6upvUcGnhsPLTiTecZiuZLc9nmTen+qxEqVj59FHH7UjjzwyGFNO9a99qIsNPnwP/x2mI9nPZ223pgmH0tomBeH++IjHdwd26qmnBmPMfbbp2Jk/f34wZnM6biXWftExqOA9Xp2qfpTv6hhujOh6BQCARoxzNwCgoVM4oS/9aq2nwFwBTDIhr8KcWbNmufcqnAq3GFUo4kMO/xN1hVE+kE+F1i8cWPgQRKGOWifqMdpdjJ9GAYy2Ra0DFXxUFbqkQuukQEXrp+3WT/O1nb4FfLq0vgrao+ur5WlZ2pZk9o9E3+PD/SFDhrh5q958PcYSnd4L74N0KCDTe3/6058GY8q3W+sZ3d9+GxKFXr7O+vTpE4zZXE0ek7VBQZ/CQwWY0dAwyod7PuzzFCQrVFWL2lRpfyjwjs4z1q8SwrQstU72da+AU0UUYKue1So9SsdP+GJNdD8nu7/0dydahuaZyi9iYh2H8ehvZN26dZvVT1iy2x5Psu9P5ViJmjhxoptndL6qf130O/PMM5MO36uqk2Q+n/1nTKIuvxLRech3Bxa+eKtfLCTiLx5G191/Dum4j0XLUGv06l5EqM/oegUAAAAA0OApZFMLuUShWDwKpxSU+ZaIPrBQ0KPgRcGCArXaaoGXKCD10glitO7aBl+iIbgPsxS2aB0UDCm4qgnpBkdRCtXU4lL7VPsg3O1KssFqtB5iBVEKq1QPfpp4IbTqSK1MFcrFCthUx+FlqVR18SGZEDPZYzKZ7UhnGi1b6xCPgj61FNb6hFvHxhMr1K4uHcPat1UJHw8KXMNhrUJP/5pavauOVdepSnZ/+YBXwr/uqEpVx2FUvIsTYdXd9mTfn+qx4vmQN957dNFBv+BR9ynhlvzxJFMnksznczLTxKJgW10Gqc70d6h60b6NdgEjOlZ9/eqYiv76QH+z2267rTsm4l188BcatKza1P2Yg6z9njsGQ3ULXa8AAAAAABoUheHNmjWzo48+2rXoqy6FU2oB7bscUZigFoMKLPQ9OJUWj1XRPKMtmaPDXjhsTtQiOZ5wH8Iq4RBcoZPCLAVPei2ZbgJSEW99U20Zr9abffv2dS0o1YIz3JJXIZG67wgHSNGWphKtB198dwoS7jtYJVaoKb67hXgtf1XH4WX44lvaxpJMYJfsMZnMdqQzjUI59bkdLyxXSKoLAgrck/lVR7zuPLp27Zp2gK6/I9VPVDSUDx8Pml5/97popHX2XW3oNf3iJBxEJqL3aj5esvtL9akuV0TrkOznWVXHYZTqul27dnEvJFRn2yWV96d6rHiq07PPPjvufHWhU2GxLoKpC5aqVFUnXjKfz/GmqYr2o85n+htUvSX6nPCf1Spad9V3uB9z/c1+++23bryOpSgtY86cOVukNfnAq8+0nscdEgzVLXS9AgBAI6Z/SAEA0NCoFeZuu+1mL7/8svvyLwpSFbwkaqmqgCZWy1gfcinEFT2Pdtfh558qLTMcfvnwUa2hFdCoJWI0VFbraYUnei0a4tcUrYfqKtyy0HcjUB3x1jfdLgo0P+2LKVOmuJAnul8UQPrwSCXcgjVe/Wpd1Po01W1Vq++HHnooZsvfeNut52oxGr0xX5iOrapCzJo8JtOh+tLxouMmSvWpYE4hqf4edewmCir932d0Xtoe5U7pBOXaz7HCd11c0Wvx6tYfX6rf1atXu8Az2m2F5hEV/eWKvwCm9ya7vzSdgmIF6go4xf+qJZFEx2E82oZEF6nC6x8Wa9tjSfb9qR4rnupNf/++q5oo/S0rfNffvy6ExLvRZVhVdZLM53O8aZKlOgtf/BM//0SiXf142hYdF7oIGt1+BegjRoyoskuaho6uVwAAAAAADcoOO+xgJ554onvuWxPrp+iSqG9a/RxfoUS4P3IZN26cCyb0k34FDQpPFCr4acKtPhVspEItHH345YMxrbNaRfpQQwGPD1LD4ZnvPkDrFQ2UFAxV1R1GIgojFSyGbzLpW2RqGxV8pcuvr+rV83UQL+hKRBcVPv/8c1d8tyvJUP3qxnsKjcJBtdZF4VYy3TOEPfXUUy7Qjvc+f0PB8HZrn2lcvO3W/lafwtFQNaymj8l06DjR8RIrxPbHkLZfx7VanycKKjWNupgYOXJkxTR+e/T3kE6QF+tv24eniQJlX/+q344dO7rjQvWs8eLnoaA2HMJrONwaOnxMJbu/fGtiHaO9evVyn11aVlUXcKo6DqO0DppnvH6rxQe+yWx7LMm+P9VjxdM08UJeLU/LVfiu8Fit7HUsJGqtnkydaD9W9fkcnia83zS9/ub9/o9HdaYW8P4XAn7+qrPoRbcwv/6xLjyqDvwNU/37/ed6Op+/DQ1drwAA0IjxazAAQEP129/+1oUjYWpNGK+LA1GooS5GNI0CP50nVRQ4vPbaaxU/6b/qqqtcgOGnUZcT6uJDP21PteWg+prNyclx81GYpAAt/PN6rYtaVioICk8T7gpF66X10/b6dVbI+PTTT1esc6r0Pm1TuL9mUWvMeN1iJMuvr+rVz1uhzzPPPOOCLoVIPnBNJrjxN89TCbe8TIbWRfXk69evi0IkX7+pSBS6+m0Lb7f2mcbFCvgUdumCj4Ky8H5QUfCm8QpRFXbV5DGZDAVr4b8RrZ+WFz3etK16LRxw+6AyekEqTH8DCkn1iwbNX4+af7g7nFTE+tvW34j+tqKfCeG61t+bqH41jzFjxrhAUeP1ulo/63NFXdOEL0io3lUXfrroMVXV/lIwrPVToOnrVOupsDd8ASGeRMdhmOYzbNgwtz/DXRRpvXV86TjTNqay7bEk8/50jxVRvcX7rAhf6BSti/5uohfrvGTrRJL5fPbTaL/5eSX6uw/Te/WZ69dD89dFMx0HqrPwBcvwuuq40nvj/b3EurgarvfGLKO0BtLtkpISe37b4db/wlNt5+vPD8YmtvzND+2Nwy+xqeftYllZWW5nt2/f3vU31b17d+vRo4d16dLFXQVr3ry5ZWdnW5MmNIAHAKAmcO4GAGxtOhf9s+n+dvgb91iXw/YKxib26Q0P2Oy7HrVXj9/B9UHeqlUr18pT5x+dh1S22WYba9OmjTsXZWZm1ulzkcKW6oSyKKcATYGQgp50g9S6yG+XQmOFXlEK2tTameOnbtF+STYI3doUCl9++eV25513bnaRQ3wgHL5419BRJ5XNu+MftuQ/063/pSdbz+MPtYymDfv7Hd9eAQAAAABAvaXWmkK3AQBQswpWrbNlr71v00++1p7r9WP77MYHLW9J+r8oEr2/YE1OMFS31GhQTtcrAADUL5y7AQBAfaWWn+qHXV0ajB8/vsF1G6DtUZ/NsVqTi1qbh7t4AFKlFtPqYiRWy2lRq+nG1JpcqJPKdr35YtvhsvJua/KXrbHPb33Ynu81wt7+ybUuQE/HjJ+Nti/vfDoYqltqNChXPzgAAAAAAKBqClsIOtOnIGvWrFmuxAu1gC1NFzB0gYP+ntFQDL7z/6zfBSe458X5BVZaUmqLX5hubx5xmb2ww0/sizuftsL1G93r9R1drwAA0IhxkRsAAAAAkMg+9//G+p1/vGUE9/0ozivQz5MtZ/53NvvaCfbvLsPt/fPH2NpZX7jX49H9SfSb5pLSEvc82bKl1OjNPLe/4BTb5YYLgrGJcUMwAAC2Hs7dAICtTeeidG7m+dlND1phZoa72BsuOueohMcBAICaU5ybb8WbCoOhyhSil5ad2zvtt7Pt/qdf2puH/zJ4JcIn0TFO09ndW9vRC6YEQ1bxfTL6WFtqNCjvf+GptvP15wdjE+PLNgAAWw/nbgDA1pZuUP7J7Q/b7H27u3NRs2bNrHXr1u7c07FjR+vQoYN7rq5M9HrTpk0JzAEAqAF53y232b+7x4rzNllpceVW3jrXlpaV3qcMs37nH2ddh+1jTzfZzw6a9Kdgiqqtnf2VffXARDvss3+675H+u2RmZmbFcHh8bSAoBwCgEfLnblqUAwC2lnSD8tl3PWqvHr+DC8lbtWrlAnKdf3QeUtlmm22sTZs27lzkv1wDAID05cz7xl494BdWlJNrJUXFbpxvQd6qbw/b4ZenWN9zR1h2x7buNXk6Y9+Uz/FfPjDR9p7xUEUgrgve+l6p87kv/rXaUKNzrYHMHQAAAAAAAABQB6yfu9BePfB8K1i7wYXkaj3eJKup9f7pkTZs2v02Yv4zNuDKn1UKydNVUlJqK1eutBUrVtiaNWts3bp1lpOTY7m5uVZQUGBFRUXuQrtKbajRoJyftAEAUL9w7gYAAAAAxKKQ/LWDLrCC1evdzTvb7LCtDZ5wtZ246lXb//E/WOeDdw+mrBlqhL1kyRJbvny5LVu2zFavXu3C8ry8vEpBeW2hRTkAAI0Y524AAAAAQCxf3jXRijfmW59zR9gR7z5kx3zxL+t/ycmW2aZlMEVs6YbZpSXFtnjx4oqwfNWqVbZ27VrXqnzTpk2VWpTXRmBOZ20AADRitCgHAAAAAMSy2y2X2omrX7H9/j7aOu67czC29pSUmut2Rd2vKCRXi/L169e7FuX5+fn1q0U5AAAAAAAAAKD+y2rX2pq2bB4MbQGlpa5vcrUiV5crGzZssI0bN7qgvLCw0IqLi2utNbkQlAMA0IjR9QoAAAAAoC4osVJ3404F4/5RXa4oJK/t1uRCUA4AQCNG1ysAAAAAgDqh1Fwo7vsj1/NoS/LaDMsJygEAaMRoUQ4AAAAAqAtKy/5TKB4u+s5a2wG5R1AOAEAjRotyAAAAAEBdoWDcF29LhORCUA4AAAAAAAAA2Op8QO7D8i0VkgtBOQAAjVj4Kj0AAAAAAI0VQTkAAI0YXa8AAAAAAEBQDgBAo0aLcgAAAAAACMoBAGjUaFEOAAAAAABBOQAAAAAAAACgkSMoBwCgEaPrFQAAAAAACMoBAAAAAAAAAI0cQTkAAAAAAAAAoFEjKAcAAAAAIOKmm25yN73WY1WmT5/upo1Vknk/AADY+gjKAQAAAAAImTdvnk2aNCkYSs7uu+9uc+fOdff/UMnNzbWLLrooeBUAANR1BOUAAAAAAATy8vLsjjvusI8//jgYk5xu3bpZ586dgyEAAFDfEJQDAAAAABCYPHmy3XfffcFQzfNduvhy8cUXu3Be9KjhJ554wg17eo+frjrTeKtWrbLhw4e7LmPCwuu2xx57uJb1VdE0mjbW9kT55fppwyW8PK13+LXwdsSbR7SLm2h3ONHt0fS++GlirXui+fhtDy/br1+iepBE2xhLtJ59SbQPVfx6JFv38d4vetRwtC7Fr5+f3k8ba9+F5xlLstuaTB3GmyY6Plz8/kzmGAq/rqLt03ZKtA7C27969eq06wdA7SEoBwAAAACgjIKqxx57zI466qha6TZFwdr333/vumVR9ywrV660hQsX2rhx44Ipth6tm4JBrZPWbcKECTZw4MDNwskwvaZprr766oruZuSKK66IGfR16tTJXnrpJTetuqlRdzVvvfWWG541a5YNGDDArcfYsWMrurHRo4bDgaI8/vjj7nU/jbrK8euqx5EjR1bqCufkk0+2UaNGVYSYct1117lHvR5r3auaj9ZX9aRl+wD17rvvdo9jxoyxFi1auOdR2kYdZ76u9ajh6DZGDRo0qOI9WifVX1ii4yvZuk/m+NQ+/+CDD4Khchqu6lcYWv7UqVODocSS2daqjpNE9XzGGWe4cSo33nij+3v32z169Oikj6Hw+/TYp0+fimMgStt/1lln2b333hvz2EilfgDUDoJyAAAAAADKKOBSUKWgrGfPnsHYqilMVEDWsmXLYMzmFK4pfFNQ5kMyhZcHHXSQCye3ZgtShbwKe7XdWifReilAVLAYa900Tq9pGoWOou1S0DxjxgybOXOmG5cKvx4KnxXcih4VxGtZ4YAyTF3eqOsb7Qd5/fXXXajp5yFDhw61pUuXurDU0wWRSy+91D2Pte7JzEf1pGnUXc8rr7ziwvdwPUb54yA8jQ+xfT2mo7rHVyrv32+//Wz+/PkV4/SokFz7KR7t20cffdSOPPLIYEz6kjlOqlvPyR5DYao3fW7Eqm+tz5QpU2zvvfcOxlRWk/UDIH0E5QAAAACARk+hmkJOBb8KB2uaD+k0b4VmvhsM36p5a1JrYAXNaikcpmBQ4bNaykZpnF7r169fMKZc7969bf/993dBY6p8ABnt613hogJKte6NReN1gUMXK0ThqIqoVbHq+eCDD3bDYdoXPkQVv+4+cE92PqeeeqoL2BVyVnX8aF21Lan2Z6+6adeuXdyLMdU9vlJ5f6tWrSwnJ8cWLVrkhv1j//793WMsEydOdHUXq/6iqtrWZI6TdOvZS3bfh/lwXmG5v9jgaX20TTrGYkmlfgDUHoJyAAAAAECjptafaomq7h0UeqZKrWtjhWNRPnBTeKdQV2GzgtWoM888003nS6ywMp1ptPx4FDRrvcLTJxPa+XC6piR7U9Twtmk9wwG1wkr/mloeK6RUNyOpSnY+anWs1sfJHj/p3PhV4X1Vx1iyx1c8yb5fQbm21Xe/okcNa3wsai2tekv2byuZbU2mDtOpZy/Zfa/7GSjQ9/Um/lcKno5Vfb7oVwextinV+gFQewjKAQAAAACNmlrEqkWwuo9Qq2qFXj541qNa16q1aCwK2dXVQrRldZTvLkKBmPozjtdPsYT731aJFVamOo1a4Sr8ixeWqxsSTROep4paGYdbXUf51tdRVdVHPPG6tujatWul0DO8bQp0tQ+0bf6ih+pDr/n+t5PhW8lLKvNRveo40fGjMDTa7UZUvG1MRBdjEtVpKsdXLKm+X623tb36u9BjvC5FRK2lzz777KT3Q1XbKskcJ+nUs6Sy78N9lKuo6xp17RL+vNCxqvEHHHCAq+eoVOsHQO0hKAcAAAAAIE0KydatW5cwKBQFdtHuTXxXDVuCwm6FdbH6T1br4Vihom56ePHFF8cMftWKVu9TqBnmLzqk09LcB5zR9VCL5XCL3SgFukOGDHHbtnr1ahd2q9uYsFhdwajuw4GmlquwU/vSh+ZVzUfvV0CvUFWtjrXtkydPDl7dXLxtTMQfJ4nqtLrHV6rv912IKFxfv3593C5FFKLPmTPHXWxKRjLbmsxxkk49e8nu+1h07OgYii538ODBrlufiRMnBmPKpVo/AGoXQTkAAAAAoFFTS061GvWtQlV8C209JmpVrdcS9T3sKbhTGK3pPX/zUIVyCudqkwJItZKN1aWFuixR1yGjRo1y04lavo4dO7bSzR3DNE6vqSW1AnVRoK4W1QoEFQymSvtB6zFy5MiKlrfh9Yi3D7TcadOmuW3r2LGjC1m1rT7gV/DqW3yHA0zVvfaB+HVXNy5aD38hoKr5+P2p7jb0Pt1QUusbq+Ww+G1UuO7rWvPXBYl4rf0VwEu0D/mw6h5fqb5f+1/drahFdbxjRFQXI0aMSPirhLBktjWZ4ySdevaS3fexxLuoo/rRzWJ1YSF88SHV+gFQuwjKAQAAAABIgwI39T8c7qfYFw1rvMI1TafgbsKECZX61hZ1y5BuFxFVCS9LwZ3Cv6uuuip4tTLduFCBuabT9Aoqtb6+3+9Y9JqCTYV9eo+2WWF1qt1+hGk9FDZr+eH1UHcWYeFt03JF26bljhkzxoW7fp+o/tWliIJdjfcU8uqmlOF19zdwTGY+Cjy1HuEQ/6STTnIXCsIXHaK0DL3H13V02WG6CKHwPtqHvOpFoa1e03pU9/hK5/1qPX366acnDLXVpU+yraWT3VZJ5jhJpZ7DUjmGon/7+lsYP358zOA7HN7rlw+SSv0AqH0ZpbpUXk0lJSX2/LbDbfsLTrFdbrggGJvY8jc/tDcOv8SmnreLZWVluQ+W9u3bu/6kunfvbj169LAuXbq4K/PNmze37Oxsa9KEXB8AgJrAuRsAsLXpXPTPpvvb4W/cY10O2ysYm9inNzxgs+961F49fgdr1qyZu3mgWhDr/KPzkMo222xjbdq0ceeiTd+vtAX3PWNLXp5hR7zzoDVplh3MqWYo8JJEwVsy02DL035RVy3xbrBYVyg8Vmv5WOupIF7BsI6tRBc06ovGtK1AQ7clzvGZmZk1/n2Tb68AAAAAgIajtNSWT33X3jnxGnuh34n2+Z8etdxvltqmleuCCQAAADZHUA4AAAAAqPdK1+fa6r+/ZO/ve6HNPG20rXj9Azc+q11rGzb9AWvRcxs3DNQnakUdrysbde+hPsUbSgvrxrStAOomgnIAAAAAQL3V/JtV1uKB123Dmbfbyvv+Y5uWrXY34ywpLLLs9m3siHcfsrYD+wRT1yx1A1FVlyrJTIMtT/ukOn2pAwAaHoJyAAAAAEC90rSoxHrOWWm7Pvyh9XzgLcv8aKFZcYmVbiowKyktm6CJZbZpZUPffsDaDNgueBcAAKjrdGNc/+ifbynczBMAgEaIczcAYGtL50Zfn4y+1z4b96iVFJVY0yJ9ldUX6M2/0up7tYLyjKachwAA2BoK1uSUn6bL+Lg7IzPTmjbPjnHmLrcpq8heP3GA+y7pb+ap75v6rtmtW7dav5knQTkAAI0Q524AwNaWTlD+6Q0P2Ozxj9rX27e37eausWYbC8tT8cjXWo3qcuR+Zee5E7Z4azQAABo7xc0LH/2PlRSXWlFhgRUVFNqm/HwryMu3tQu/s5JWzctO1G3dvwXcKdyfx8vO2TP36+K+Tyoo79Chg/uO2bNnTxeU634FBOV82QYAoEZx7gYAbG1pB+V3PWqvHr+DNWvWzLqtLrJtP19lLecssQx1uRL+elv2ZbvvL46zfR/4bTACAABsCTrHFxUVWW5uruXk5NjKlSttyZIltnTpUvvuiamW2ybbcnt3sMLCQjetir476uK2HnWODwflCsn1vbO2g3K+vQIAAAAA6qWcbdvZ0tP3to1/PtOaXXiUZfXs7MZn6Itzaakt+Nuz9tGoP7txAABgy1KQrdK0aVPX2EqNqdoee4C12LO/a3ilGyr7onBcAbjG69EXvUdFwXhthONhBOUAAAAAgHqttGUzyz5uP+s3ZYztNnmM9ThlqDXJaupe++LOpwnLAQDYChRqK9xW0K0gXCF469atK0rbtm1dC3H9KtkXDWu8Xtf0KnqvgnbfnVptheUE5QAAAACABqPtvoNst/uvsR8vecH2uvvX1mbH3vblPZNt08q1wRQAAKC2RVuTqysVheDqvlM36ezcubPrSkU36PSPGqei1zVOXa8oMPcty32r8tpCUA4AAAAAaHAy27S0fhedaMfM+6eNmD/ZmnVuH7wCAABqk2/x7VuUq1W4D8kVgKu/cfU7rntd+eLH+UcF5wrK9R6F7ArLwyF5bbQqJygHAAAAADRoLXt1CZ4BAIAtwYfkvtsVhd3RoLxHjx4uJO/Zs6creq5xet23NPfdsGgevkV5bYTkQlAOAAAAAAAAAKhxCrbVGlxBuULv9i1bW8e27VwQrtKlS5eK4gNyFXXBohblaomum336rldqE0E5AAAAAAAAAKDGqNW3L+Gw/LPzbrHlD77gbtypIFz9kfuiYRV/U09Nr25bfLcr4XnWBoJyAAAAAAAAAECNCgflKq5VeNlws6xs152KQvBYxb8WvYlnbYbkQlAOAAAAAAAAAKhxPtz2gXmTjIyK5wrBYxUfjPsSnkdtIigHAAAAAAAAANSairA7o4llZFQO0GOVaEi+JRCUAwAAAAAAAAC2CIXl4VA8VtkaCMoBAAAAAAAAAI0aQTkAAAAAAAAAoNbtdc811u/844OhuoWgHAAAAAAAAABQ69oO7GMtem4TDNUtBOUAAAAAAAAAgEaNoBwAAAAAAAAA0KgRlAMAAAAAAAAAGjWCcgAAAAAAAABAo0ZQDgAA6oRVq1bZ8OHDLSMjo1K56aabgik2N3369M2m92WPPfawefPmBVMCAAAAALa2r+//ty179b1gqG4hKAcAAHXCypUrbenSpcFQ8nbffXebO3eulZaWViqzZs2yAQMGBFMBAAAAALa2Rf+Yaiunzw6G6haCcgAAUCcoKP/444/txhtvrBR4jx49OpgCAAAAAIDaQVAOAADqhNdff9099uvXzz3WBHXb4ovvkuXiiy+2vLw89/oTTzzhuntRty+eXtM0vssXTRPu0iU6Hz99rGn0XvHdyqirGE/dwqh7GL8cDR911FH27LPPuvF+HuH3eOHtiU7j5xt+XcWvi2j68Hb7bfTzibVNfj1j0fvC04aLr6do1zrRek9mvSW67X7+4pehOgwvKzoP8dsca5rouvqSqA4kOk9fwusoiZYdT7z6iR4f8eon3japaL6af1X73b/upw/z6xfd1qhktyOZOoo1TaxtCBe/nOgxG92maD2qhI9Zvxy/Xr5+NW716tWVXpPw64nqBwAAAFsPQTkAANjqFBx9//337vmZZ55ZEUzFCsdSdd1117lHtU7Pzc11z6+44gq3zL333tt196KuW7xFixbZjBkzbOjQocEYs4suusi917dyf/zxx4NXfqBx/nVNq/ckMnHiRNeCPmzZsmV2/fXX29NPP+3m89Zbb9nBBx9cEe75cE7DaoEfaxpP4/366PnYsWM3CzdFAd60adPc/A466CC3DNVPz549K96v+pk0aVLc/aH3+WlVDwr8/frde++9rk6HDRtWaTo9P+OMMyqCRy/Reiu81HHi94WWsXDhQhs3bpx73TvhhBPcLxE0jdZd8wivu+ajcb7LnljTSHif+jqI1nNUVcdKssuOZdCgQRX1qvep26GwRPXTqVMne+mllyq919e1uinq3bt30vt94MCB9sEHHwRD5TQcPZ7jSWY7qqojTfPYY49VzEePGp48ebI75vw4HYvh/ajjTvtw5MiRFfNXOfnkk23UqFGVjsfwvtRjnz597O677w5erUx1e9ZZZ7llt2jRIhj7A70+derUYAgAAAB1EUE5AADY6hRCKdCLUmieTICYiIKySy+91D1XgKUwUEH4zJkzXTi4//77V7RmFwV+3bp1c2FgbVFQpwDyyCOPDMb84Oqrr67oW12hnrqiUQCoAFvrrHUfP368Cz5jTRNL586d3aOCwygFeApH/fwUai9YsMBOPfVUNyy+nubPnx+MSY0uCuj9V111VTDGKvaJlh9PeL0VYKreFEb6IFLrrO1XOBzedtWHxovqUnWq+tE8FLqr7idMmFBRz9FpYtG66LiIdZwmK91lJyOV+okllf2+3377uXF+nnpUSK7tqK5k6shvqy6G+ONWjzqWdPGlKvp7VzDu5y+6MKaLZrH+RkR1qr+TWHWp9ZkyZYq78BaLtunRRx+N+fcOAACAuoOgHAAAbHUKpxRShVsi+5a41Q0QFRT6ME18+KfAU+HXkCFDXOimZSgAU+vq6HtqkpahbVJQ3Ldv32Bsua5du24WtinA07r6iwkKa32A7GkaBegKO2PxrX+j7/PbG249r/BQLV/1qIBPXVK0bNnS7rvvvmCK1GgZChcVMvoAV3yIq+VHg0cvvN4+CNV7tK98NyL+FwNh4e0R1amOKR1bPgiN1kWsXxeEabzqRa2K05XuskXvbdeundsXsaRSP7Gkst9btWplOTk5Fcebf+zfv797TKSq7UimjlT0PDpNshSw+3sfqGW66km/ykhEdarPiehxLFofbZM+W2KZOHGim39VywAAAGgMOu69k7Xq1zMYqltqNCjXPzIBAED9UVfO3Qrn1P2Dgj4fUCvoU3CuQMyHZ7VByxGFXQr8ot2u1DS1ClfgfcwxxwRjUqOgNl7IGKZQTvtXRS3z1SJX9ewpFN12221dC2SFq55Ca3XvovepVb1a3iqkr6ormaok2/d8ovX2oaYCUtWD1kutx1MV62JDLOFugLRe4Zbq6Up22VE6ZmKFtGHVqZ9U9ruCcnWX4i9k6FHDGl+VZLYjmTpKtx5Fgbffr2q9rr99dUMTpYsE+lvzdSr+lxCejhFd+LrjjjtibpMuOmje4Zb6AAAAjdnuYy+zPmcdHQzVLTUalKulDgAAqD/qyrlb3asojFJQF691cU3xLbM937JZ3THUdrcrWrZCtXCXEVUJr6toWPOJigaH4b6+daFByw13Y6OLEN9++60br4DV8927KDzUe33L2+qK121LNDSNt96+Sw7/ery+oGPRfNT/uxfv4ota9IfrMNy3tepcLePDdZWOZJcdpfpLdLGhOvUjqe53tfBWdytqaa1HDSejqu2QZOoo3Qto+nzRMaULCNpOXaALX0AKi/Y3r4tK0X71dYxo/AEHHOD2QZRak5999tlxlwEAAIC6g65XAADAVqeQTS1S1YJTgZ2odblaPVen5aj4blU8hWsKvcLBnlqQa7ra7nZFQaQMHjzYPUYpzPWtdD0Fi36d1Eo4VkCokD9RS3N/MSAaVitIVcingNWHfAri1TVNuBsJ39I+HVqGwvBo386+K4tEoWl4vbXN0YsYfh5R4T7nJbxN/liK1qHqPdxyOErboW56kunvO550l+23U/s4nlTqJ5ZU97ufTsfO+vXr43Y7EpbMdiRTR/GmSYa/UBb91Uj0mIlFnxn67IguV3/PqruJEycGY8rpAsKcOXMqfrUCAACAuo2gHAAAbHVqbamuHsR3vaEuDSSV1texKGy/++673XMFnOoiQcsIt/D04aKC+trsdkX9RYdvthjL2LFjK0JrhYoKIn23DT6QGzVqlAsdRdNUNV8fUMYKpRVEq+5VL6ofhZjhCxa+zhT6pRsSa/0VuI4bNy4YYxX7JFGIGF5vhaO6SKALKJ7mof0bbWWv+tD7RHWpOvX144+1kSNHVtRzeJp4x5q2WxdSquo2JJF0l61W3pLolw6p1E8sqe531YEubqnVdVXHtJfMdiRTR34ate73fwdaP/0ipaoW/7qYpG1Vq3K/Tf5vSNuaKHyPd0FD266bBOtv1R93onUeMWJEtT6/AAAAsOUQlAMAgDpBgXi0P2V1I6EgtzoU5OnGgwq4FJIp6Ix2K6EgS8tRdySJQrzq0rrEa03uqQ/k0047za2vwsKnn366ItRXIKcuNbSuCuv8NAogo/UU7utb0+p1dRsRiw+yJ0+e7KZTdxL+/aoztaTWvkkmcI1F6//aa6+5ENGvk8LXZ555ZrMQMd56ax4TJkyo1G+4aF2jrez//Oc/V/TXrf2p94XrR/tffZ/rtfA00foJL8u31r/qqqvcY7qSXbanbmdUJwq8/T7371Owq9dUr6nUTyzp7He1sD799NPdulQl2e2QZOpI0yg49/OK97cdpb+hMWPGuG3Se/ReHSv6rFHwr/FeuI9yFQXf48ePjxl8h8P71atXu3H6PKE1OQAAQP2RUarfD1ZTSUmJPb/tcOt/4am28/XnB2MTW/7mh/bG4ZfY1PN2saysLPeP0Pbt27u+B7t37249evSwLl26uDvIN2/e3LKzs61JE3J9AABqwpY4d2fkF9q3T061L+76px30z1us3S7bB3PachRaKZCNd6M9Ty1L1SI0maCttqjVrALyaKiL5Kl1scJUBajxguf6RgGzWrLHOob99uqYrevHTEPZDtQsnYv+2XR/O/yNe6zLYXsFYxP79IYHbPZdj9qrx+9gzZo1czeR7dixozv/6Dykss0221ibNm3cuSgzM5PvkQAA1CGlZed/NUIo+18wpu6o0X8x1EDmDgAAtqDaOHfnfPK1ffzLcfZct6Ptw5FjbcO8byzv+xXBq3WT+mJesGBBRRcnAAAAAICa9+awkfbZjQ8GQ3ULl9YBAED1FRbZhv+8a58e9xt7+5BL7dt/vGIlm4pcS4EDJt5i3Y7aP5iwblFLVnWNoK4d1Eex7+IEqCvU0lrd7cT6RYS6AFGf5PWhFXZD2Q4AAAA0XATlAAAgbVlrcq3F5Pct/9w7bfmYJ23jnPL+fYtz8y2j7F8ZB076o237k9q7OWZV1JVDvHBOfECnlvVbO6RTSD9r1izCwmrw+7OhdLsCAAAAYMshKAcAAKkpLbXO36y3QZPn2Pbj37Rm/51rtjHfrKjYSsuKZDTJsAP+eav1OvEwNwwAQE1yfZsGj/45AABAddTozTy3v+AU2+WGC4KxiXEzTwAAtp70z92XWn6rLGu+sbD85itx/hmR2aq5NcnOCoYAAIitYE1O2fmk/LmPuzMyM61p82yL90V1U1aRvX7iAPcd0d/MU98j9R2yW7du3MwTAIA6THmwbuK98/XnB2PqDoJyAAAaoeqcuz8Z0su2m7vG2q7IjRmWZzRtYq369rCdy+ab2aJZMBYAgMr0VXTho/+xkuJSKyossKKCQtuUn2+5i1fY+uUrLWvXPlZYWOjOWe5U4883Zeeemft1cd8TFZR36NDBfXfs2bOnC8rVDRNBOQAAdRNBeQwE5QAAbD01ce7uWNDEes9bYx0++t4y8gvK/lVRNpHPMDKbWvvd+tvQ/95nma1j9w8OAGjcdC4qKiqy3Nxcy8nJsZUrV9qSJUts8byvbflX31hO2yzbuHFjRViuou+E6mpFj82aNasUlCsk1/dJgnIAAOquNbO+sOz2baxVn+7BmLqDfzEAAIC05LdvbsuPGmRrx/3Usq46wZrvvn35C02auL7K18ycZ2/+aKQVbcgrHw8AQAwKslWaNm3qLsQ236aDtdyhlwu61aBKN2T2ReG4H69HX9SwSkXBOOE4AAB1V4c9dqyTIbnwrwcAAFA9TZtY04N3sh73X2F7Tvur9fvVqZbdoa17adW7nxGWAwASUqitcFtBt4JwheCtW7euKG3btnUtxPVrY180rPF6XdOr6L0K2v3NPQnLAQBAKviXAwAAqDHNtu1iO4w+z4Z/+6wdNPlP1uXwvW3Ve3Ns+evvB1MAAPCDaGtydaWiEFzdcuomnZ07d3ZdqegGnf5R41T0usap6xUF5r5luW9VDgAAkAqCcgAAUON0Q88exx9ih78+wY5d9Jz1OO6Q4BUAAMr5Ft++RblahfuQXAG4+htXv+O6h5Uvfpx/VHCuoFzvUciusDwcktOqHAAAJIt/NQAAgFrVsleX4BkAAJX5kNx3u6KwOxqU9+jRw4XkPXv2dEXPNU6v+5bmvhsWzcO3KCckBwAAqeBfDgAAAACArUrBtlqDKyi3b1faxn+/7bpXURCu0qVLl4riA3IVTaMW5WqJrpt9+q5XAABA3bTw0Rds+X9nBkN1C0E5AAAAAGCrUKtvX3xYXvjF97b4wf9U3MBTQbj6I/dFwyr+pp4K19Vti+92JTxPAABQtyz4+/O24k2CcgAAAAAAKgkH5b40zchw4be6U9FjrOJfi97Ek5AcAACkg389AAAAAAC2Kh9uqzRVycioCL4Vgscq/nVfwvMAAABIFf+CAAAAAADUCT7ozij7Lxx8xyvRkBwAACBd/EsCAAAAAFDnhAPxeAUAAKCm8C8LAAAAAECd0bxrJ+u496BgCAAANCTtdtneWm7bNRiqWwjKAQAAAAB1RvejD7AD/3lrMAQAABqSwXddZX1/fmwwVLcQlAMAAAAAAAAAGjWCcgAAAAAAAABAo0ZQDgAAAAAAAABo1AjKAQAAAAAAAACNGkE5AAAAAAAAAKBRaxBB+U033WQZGRmu7LHHHjZv3rzglaqF36syfPhwW7VqVfBqzZo+fXqlZamkur4AAAAA0JAtfOxFe2HAKcEQAABoSN488jKbc/NDwVDdUu+DcgXd1113XTBk9vHHH9uoUaOqDLv1ukLx77//3nJzc620tNSVs846yzp37uxC7Zr0xBNP2Ouvv16xHF9mzZplAwYMCKYCAAAAgMattLjYSgoKgyEAANCQlBYWlZ3rS4KhuqVeB+UKsxWSX3TRRS7sXrlypR111FE2depUmzt3bjDV5vLy8ux3v/udHXTQQXbvvfdaixYtglfMzjjjDHvrrbds5MiRNdbSW6H8tGnT7NJLLw3GAAAAAAAAAADqinodlC9cuNA9DhkyxIXdnTp1spdeesm11FYIHs/MmTNtxowZduqppwZjKhs8eLDtv//+NnHixIqW59EuU6LdpqjFePg1DXsK8Nu2bWvffvute4+fRq3hPb+cZ599ttLywvPxot3FXHzxxS7896+F10sXE8LDetRweNnRdQ+3pvfrFR6nZWmZfh6xpom1HAmve3i9YomuV7hEl+3H67nGebHmEV2u357wNOH11rS6AKN9o/f6acLb64W3LzqNr5Pw6yqx9nFVovOKHgPh+Wu6d99919VNouNLz6P1F97XseopOp/o/ggXXxd6jLef/DQa1rLuv//+ivdH3yPR5cWbb7ikuv/9MsL7Mlwvksw0sbY7zG+z3uf3b6z18NNE+dfD2+FLeL2i0yVapzCtS3ieKtF10XLCr/u69nURfi1c/PpFj+vw9scTfY8v4W2W6LGg4ahY0yS77vG23YtVf+G69/slWhd6X/Q1Cb8OAAAAAACqr14H5fPnz3ePGzdurAhKkgl9FLArCO/du3cwpjKF7grf1S1Ly5YtK8J3tVLffffdXYvzcLcpCirGjh3rXvfTadgHMQrKNXzuuefa008/7aZRC3jNPxpynHDCCTZ69OiY8xFNH+4uRvPW9owbN869rvdOmDDBhfyxaLxe13SieUfXXa3pw8tMh5ajbnDCtO4KerTOWpbWY+DAgZXCnzC17td0KjfeeGPFLwc0rPVXUDRs2DB3UcRPp+d6X/gYUMjtl6ly8skn2x133OECMJUrrrjCevbsWfG66mDSpEmV6mDZsmV2/fXXV+w/HQMHH3xwxbr7MC28fdFpPH/8+GlU/+FArSqan+pN9efno/XXdmg9JFxXOk779+/vxic6vvbee29bunSpG+8tWrTIXVQaOnRoMMbs8ccfr1iulqFlRYW3UfWhfRCP9tVjjz0WDP3gvvvucxe1/HZE9+2W3P9bmj5XtH+1Hv7YuPvuu93jmDFjKv0KJipR3SdbZ/GE973+JsN0XOqzQ/Xnp1Fdqyss7UP9ekfj/DqF56V10LqddtppdvXVV7txeo8+66JhfCyDBg2q2Mdavj6nw6r6jBZNo+PQz0ePGp48eXKV655o28P1Gv671GOfPn0q9mvUxMhndZRej37GAgAAAACA9NXboFzBiUIUUfjgAwN1u1JV6OMD9qoogFaYkYjCHYVZCjR8X+N6VNijkCW8Hhrnp1HQpYBO7w0HqQqfFLxIdD4qmlb9qPugTK3oNb3qwodJClE1HK0DDWu8XvfDmnd4veKteyq0jtquI488MhjzQz0p9NE6i9Zb26tlVRWExTJx4kR3weOqq64KxlhF9za6uBFPv379KvatguAFCxZU+nWBLqBovtHjJFxP0XX3v1IYP358Stun/vBFAVyy1Nd9+DgR1Wu0G6FYEh1ffrs1f++DDz6wbt26VRwztUFBoYLDaLipYf2N+G2K7tstvf+3NO0nH+q/8sorrpup8N9POtKts2TouNH6+r8R0QUWXXxJ5vj263bSSSe5Yf8Zqb8r/X2lK5nPaBV9boXrV4+qE51PqpLOtmv7dIEm/NntaZ3nzJkT9+8u1mcsAAAAAAConnp/M0/xrfR8az+F5dUNfZLlQxAfeHrR1rkK/TQuTO9RCKnQzgu33BW9RyGiluODGwVoCnbUel6t6MM3MxVNpwDGL9vTezXeB0F6XesYXa/wMlOlwEfhk8K3vn37BmPjB67a3mQuSERpOQqYtD3hcFjbpvpRn/CxwmmN02tqyalfCyjY0vGiR4VT+mWCxqs1c1jXrl03q6fwuutR2xc9DjSNgj4FsrGoXiT6vnh8oKewNx2Jji/Vo35JoflrOb6uVJ/+mKlpqnO1gPZhbZhC0/CvPvy+VYC9pff/1qIAX8ePAtHoxZFUpVtn4t+reotHIbOKqHW2Ppv0i4pk+OPad6Pl+YsW4c/IKB277dq1c/stlmQ+o/1nYbJ/h1HpbLvf5uj+EH0u7LTTTjH/7rQvYn3GAgDQkHT90b62798rf8cBAAANw25//KX1/ln8nge2pnoblCtYUMAg4T7KfZCUqDVosiGjD9OqEisgjYo1jeadKHiKxYcwmpfeq5BWAVqUQhu1clRYo9b2CqhVJz7M8fxrmqcvGlZXI2Gaj389UZColp8KtY455phgzA8USGq9w8tKNkiLJ5l9GV6u1l3Bo2+prNBJXTvoNW23WoWqTmN1J1KVZI+XcF2eeeaZlVqqJyvV4yZZuvgiCg5jdbtS0yZOnOjqI3oBJVlbcv8n8zdQ1TTRvwEF8wro49FxoXXShbZ491RIVToXWVQn69atc+sej0Jfv11q7axjSBdBUqG/Bz8PlXj1HKbPm1hhc1i6n9HJSnbbtS3aJk3nlxW9SKRjKNZntZfoMxYAgIaiZa8u1uWwwcEQAABoSDrtt7O12WHbYKhuaRAtysOSCYEUMiZq5avwTK0rqwpfvHg/r1crZIUhKrFaaPuWyInoPT60VqCmEMb3QRyvqw3f2lw0rUI2BTeiUFDb5/nXNL9w8f2ve36ZKvGCRI1XS0cFPLFaQkb7ivZFLd1jTZ+MeBdEwvsuulx1waC+kFWfvssUXwfxwqlYovtOw6qDqGgAF65LrZfqLNX+sKs6bpIVPr7EX2zSRZba7nZFda7uJWK1Jo9Fx61aNYdtyf2fzN9AVdNE10UXSfy6xKIAVr8Y0QUt3696dSVTZ1FaZ4kXJGu9dBzrop22K/r5kaxw39/hkqj7E21PVZ/7VX1GS7xpqpLKtut40HHht0vdaEW7CtMxpO2Jdb+Nqj5jAQAAAABA+up1UO5buio4UKCgoueSKDgZPHiw+zn/xImxb3jpw7NkWnD6kCUasChk9K0GVfQ8Oo3COYUz4S49wv1DiwJR3wWF3h8NLrXNCtPC/M3hogGkhjU/3ZxO4q275pfMTVGjVGei+o3SxYlYQZQC4mh4nwwFegr2FJyG3+vrI9H+V/2pHrUu4fr1fEvqMIXJvpsUTwGdQmUFVvG2T/szUUtzH0zHCy+jNB/NL9npoxIdX57+rlSHtd3tiv5WR4wYEXf+2gfhi1kKCbW+Wr8tvf9ri/7O/LpEaVv0CxIFsPqs0Dr5v910VKfOdOwn6t4kvG/CosdbPPGOa62b6kjrF4tfd703nmQ/oyXWfqhKdbY9XjdX/kJntAuxRJ+xAAAAAACgeup1UK6wQC30fHcGKnquVps+aIhFgdGYMWNcwBINaRXc6qfv4Ru/JeK7Rhg5cmRFq1A9jh071rUWVAioohaA4Wl8CBa9AZxaj/pQKDwfrbO2T2FsODxRKK5tVlCjwEbvUavzWC0ONax5aZ6aTstVi9ZY6+XXPRVad7+uUQpcta2jRo1yy5Do9qXK9988bty4YMwPFwkS7X9/gUL1qYBN3SHo4ojoWFDLXbXgjQaKvt5E+0j17C+m+Isv4e3TNInqRHzQlyikDNN8NL/wcSI6brXNftnxJDq+PH8hRvUSDf9qij9mE+2naCtq7VvtLx8Sbun9Xxv0t+zXJcr/nesCl/9bDR+D6UinzlQHumgS7T88zAfduvjh68wf/6rLqgJozdff3Dj864roPo/SvpREv3pI5jPaT6PPPv83pO3Q+UHjEqnOtofD+jB/zoju76o+TwAAAAAAQPrqdVCusEDdj4T76FZIrqClqpBXryuIUgtLBR0KK1QUdijYULCbLAUaCrEU1mgeelTQHu4uQPPTOD+NghGN03vD/vznP7tgJjwfvy4KczQc7sdX1F2BwrbvvvvOhXwKbOMFSyeddJJ73QeQWsfwumu9FMQk6uogHl20iLdc0bZqW7SMWNuXKtXHa6+95kIpXx8KN5955plK+z/aL3T4QoiWrfrzfUvrWFAgqGPKX3zwFFiqmwxNp9Dt6aefdvMQfyyGt0/TKMiLbl+4H2t/HPj6ViimYzhRGKrpNV/N389Hx20yx32i48vTPDRO66FpaosPKePR8lW//u9T+1bHrQ8Jt/T+rwnRddHfsl+XMG2TXgvXkf/bDV+MSVWydeZpOSeeeKK7mBDtP1yhrcYr4BZdfFSd+f2l40zdiKh7J42vitZNf1MKh/0yovs8zF/UjNapjlkF1HpN2ynJfEZrGtW3n5e2Q+eH6Gd0lNYt2W1XfflpVLSt48ePj1n3/uKbtj8/P9+Nq+ozFgAAAAAApC+jVL/7rqaSkhJ7ftvhtv0Fp9guN1wQjE1s+Zsf2huHX2JTz9vFsrKyXHjQvn17657V2jp9+K01+fRb23PKn6z9Np2tefPmlp2dbU2aNLgu1SsokFJok25Ijdqj0FoBeaxQuTY8++yzLsiLhqfVkcrxpQsoCj+TCQlri0LQZMN/1B5/3PiLXFHaP2ptHi/Mrk2Jll3VeqNcTZ671d979+7drUePHtalSxfXVU9jOHcDAGrHus/m28q3Z5edo04IxgAAgIbi24mvWoteXazzgbsFY+qOOvHtVe2i2y9YY72e/MDa/W6iFU1+x4qWrrbC1TnlEwCNhELq2bNnu1atW4v66F6wYEFSffQDAAAANW31+3Ps81seDoYAAEBD8tU9k2zZK+8FQ3XLVg/K+85eYQc+8ZkNfHautZofdCfQqpn1+NuVlt2tY/kw0EgopG7duvVWaUWtVrjqp1qt2dWtRk22aEf9pONQXVTFa5WtVtvqcmhLtyaXRMuuar0BAAAAAACitkpQvnL6xzbn5ofKnmXY9rNWWnZuYdnzUv0O3EpbZluz28617D7d3LSNhQ92quoWA1ueAuNZs2ZtkdBNy/J9PtekZI4vP416Y9raAaPWU+uidQIAAAAAAABq2xYLyos25tnX9062l3Y+3V4bcpGtnDbLjW9aXGIZpWalGWUlO9Nyfj3CMnoSjgEAAAAAAAAAtowavZlnUY5ahpdTv+PlSq14U5GVFJa95pakV2Issmx0SXamZTRt4m78lZGRUfHoXg4eAQBAzShct8H9isRzZ9qy821mqxaxztROUc5Ge/nnu1bczLNDhw7uBp66kWe3bt24mScAoNoWPDzFPvvD32zEgn8HYwAAQEPxxuGXWJfD9rKdrz8/GFN31FhQPvvXd1pxUYkVFhTYptw8y8/NtQ0r17gbsWT27WZNV+VY1ooN1qSwpOwdMcLyslG5/bex0qG7WseOHd0X77Zt27ov4fqinZmZSVgOAEAN0el/4aP/sZLi0rLzd5EVbtpUfg7Pz7cNOTmWv7bsnN2rY9k5vlg9o+kN5W8sOxd/uO827tysc3T79u1tm222cUG5im5GTFAOAKiOxc9Ps6/ve8aGTPlzMAYAADQU719wi3Xce5Btf9GJwZi6o8aC8qKyL9n5ZV+uc8q+XOumgMuWLbOlS5fa8uXLbc2aNbZx40bbVPYlvO13663nZyus88J1rsuVshUI5lL2HTzDrGjIIOt4zanWvXt392W7TZs27ou4gnK+bAMAUDNSOXdrWv1zQY86F6uoRXmrVq0qgnK1JufcDQAAAACor2r026u+DOtLsYpakamoRZkv+tKc36+zffnjAfb++YNt4SHbWX675uVvzshwwXnW/z63wgdetqZNm1Z8GQcAALUjmXO3Hps1a2YtWrSoKP51jdd7FJxz7gYAAAAA1FdNbygTPE+bb5SulmkqhYWFVlBQ4B5V9Lq+POtLuL5Quy/VrVpa4XadbN2B/WzTDl0t0zIsa3mO+2l30dzvLGNDvnUbfoCb1n/xpusVAABqRjrn7mhgrhbl6iYtXDSOczcAAAAAoL6psa5X/E+4c3Nz3U+49ZNtlXXr1rlhjdfr/ufbnr5AqxWavlS3ySz7Ev7BAiv49wwrWrLahnz6mLXr1c21VKOFGgAANafGzt1t2rg+yXV/EXXDoudqhc65GwAAAABQn9RIUC76Iq2i1mh5eXm2fv1627Bhg3vUsPo49S3U9IVbfEsz/3NvtU5r3bq1+5KdvaHA2vfr5Vqv+Z+EAwCAmlPT526F5r5bFs7dAAAAAID6pMaCct8yTV+2/RdutUQLf9H204T51mZqmaaiL9hqiea/aNMiDQCA2sG5GwAAAACAcjUelKv41mnrF3xn0w4fafu8eLs17dKh4ot2eJFqlaYv0r7lmYp+yq0v2Xruv2jzZRsAgJoV69yt8uX4p23Vu5/ZzvddzbkbALDFLfrHy/b5nx61o2Y9HowBAAANxbTjrrLOB+1mg645OxhTd9TYN9jwl2J9SVaLsubNWljpulxr1aKV+0l2hw4dXFE/pr5o2P9cWzcAU/E/2Q7PEwAA1Kzwedafu9UyPKu41DI3FXLuBgBsFcWbCqxw3YZgCAAANCRFORutJL8gGKpbavRbbPjLtkqWvjBbhrVoWd5/qb58xyr+Nf9zbf9+vmgDAFC7oudunYezMrMsq0lTzt0AAAAAgEajxr/J+i/I/ku3gvKmZV+2/ZfvWMV/ufYlPA8AAFC7wufdivNw6IadsUr4vF3xnqAAAAAAAFDf1Nq3Wf9lOaPsefQLdLwSng4AAGxZ/hzcVI8ZP5yfExXO3QAAAACAhmCLfasNf6mOVwAAQN0R61wdLQAAAAAANAQZpWWC5zWuODffFr/wtvU45kBr2rJ5MBYAANRl6+cssPwVa6zLoYODMQAAbDm53yy1dWXnou5HHxCMAQAADcXy/8605tt0sLY79Q3G1B21GpQDAAAAAAAAAFDX8ZtpAAAAAAAAAECjRlAOAAAAAAAAAGjUCMoBAAAAAAAAAI0aQTkAAAAAAAAAoFGr1Zt55i1eaf8bPsoOeWm8tejRORgLAEDVuNf01vP1vZNt9Yef2z4P/C4Yg7ogIyMjeAYA1VPXz7HfP/s/+6rsXHToi38JxtQ/fGYDABDbez+/yTrus5P1v+TkYEzdUatB+caFS2xK3xNsxIJ/W6s+3YOxAABUNnXPsy3ni2+CIWxtJYVFVlpSYk2bZQdjsKWNWDTZstq3d8/DYYueE74ASMVbJ15tS19+LxiqH0qLit25qGmLZsGYumuXmy6yHUadFgz98JkdfQQAAOXeOPwS63LYXrbz9ecHY+oOgnIAwFanoHztrLnWvEubYAz+v737gI6ietsA/pIeQkLvTXrvvRcFpAmIgkqzgQ1EEaRIFwRRVFSkqqCfCP7BAkoXVECkV+mEJr2HhPTw7XOz7zJZNpAKCTy/cy4zOzs7O7PhzJ155s4denCFnbsmbc8sEndLUK7Fzc2N4QsRJQqC8pM//8k6NhVgf13xg9elSO8n4uyrXRUiIiKK9cAG5ZFXg+Xw9J+lWK/24pk5k30qERFRXBqUt7/0sXhlyWifSvTgWV59rFzZelwePTZfMmTJ4ghY3N3dTUiuQwYvRJRQGpQ32zpUslYuaJ9KybX/k1Wyo988KfveK1Lo1cfNPhn7Zy3O+2vus4mIiGIdn7tCMhbMJTnqVbJPSTtS9WGeCMdLD+jKkJyIiIgoEUJDQiTEVq5fvy5hYWESHh4ukZGREhUVJTExMaZ/4VRs60BERAkUFRHp2F+HhoaafXZERITZX0dHRzv219xnExERxSr0VLM0GZJDqgblRERERJR4169dk6CgILlmGyKAQfhiDV4YlhMRpQ2RYWGO/XVwcLDZX+vFTd1fExERUfrAoJyIiO4pBn1Etwq+elWu2grCF2vwYm2hSER0J9xXpL6I0DDH/lovbmqrcuuFTSIiIkr7bgnK9+/fL5UrV5bvvvvOPiUunKi9/PLLpmCciIiIiFJWiL1FOUJybVGuLRTZmpyIEoP7itQVERZ+yx1A1hblur/m34GIiO4nmg9bn8Wh5aGHHpLOnTvLn3/+eUv9hzpy6dKl0qlTJ8mePbuZv3Tp0tK3b1/ZsWPHPa8v2aKciIjuPZ48EsVxPeRmH+XOoQtbJxIRpR1Rtv0z9tcakjv3UW7dZ3PfTURE95syZcrIiBEjZPz48Y7StWtX2bt3rzz++OOycuVK+5wiJ0+elG7dukmXLl0kW7ZsMnPmTFm9erW88847EhgYKA0aNJDJkyebOvReYVBORERElMaE2x/giYLAxRqSW1uUM3QhIrq3oqOiHQ9d1ouarkJyIiKi+1GhQoWkT58+MnDgQEcZM2aMLFmyRCpVqiRz5swxF5Nx99WQIUPk+PHjsnz5cpk6dap06NBBGjdubMLzn376yQTmH374oWzfvt2+9LsvRYLyEydOyEsvvWSa1gcEBEjLli3NFQMcGCj8KJMmTTLN6dGs/pFHHpEff/zRcZXg4sWL8uijj5of6q233pLcuXPLK6+8Ym5hIyIiInqQRNuOj6xhizUkJyKitCPGtn/Gvtp5f82AnIiIHmT58uWThg0byunTp80FZbQcR5crgwcPlmrVqtnnusnDw0O6d+8udevWlWPHjtmn3n3JDsrPnTsnvXv3NsOPP/5YFixYIEWKFDHN6/EjwPnz5+WFF14w/Z7jB0GIjh+rZ8+eMnHiREdYDqNHjzYHFbNnz5Z27dpJpkyZ7O8QERERPRg0FNfC1uNERGkT9s3Wi5nWfba1EBERPUhwV+zly5dNAI7cF/2VV61aVerVq2ef41Z58+Y1LdA7duxon3L3JTsoP3jwoBw5ckTGjRtnmsw3a9bMMb5lyxZzoLBw4UITpM+fP1969OghDz/8sAwfPly+//57E57jAaKqadOmpm8btC5HQetzIiIiogeJc7hifa3TiIjo3nO1f+Z+moiIHmToVeSbb76Rr7/+2gTj7u7ucuDAASlatGiabxCd7KA8S5Ys5srA9OnTTcfrCMYzZ85sWoS//fbbpnn9P//8I3ny5DGh+h9//OEoaGmO9619z5QqVcp8noiIiIgYuBARpQcMyYmI6EG0bNkyyZEjh2norAVheK9evaR9+/by4osvmmnIjpEN+/j42D8ZCw2orZ9Fefnll80Dsu+FZAflCLbRaTuC8WLFiknZsmVNH+Pamhwbhj7M0Xoc/ZI3adLEUfAUVITn6MidiIiIiIiIiIiIiNKHMmXKmJ5Bxo8f7ygzZ86Uffv2yVdffSU5c+a0zyly5swZ02DaClmyfu7dd9+9bdcsd0Oig3JcIUcfbAp9zeChm+h+5ddff5XatWubfsqrV68uH3zwgaP/ce173FVBv+VERERERERERERElD4UKlTINKAeOHCgo+A5lWhYjcwY/P39TcNq9EQSHBxspinkyPo5NLwuX768/Z1745agHCufNWtW09IbIbazK1euyKFDh25pLh8QECCtW7eWWbNmyd69e2XUqFGmb/KLFy9Krly5zPKuXbtmn5uIiChp3n13hri5VZWmTXvJqVPn7VPjCg0Nl1deGWvmw/yJsW7ddvM5DG/nu+8WS5UqT8n+/Ucdr1u2fM1W7101r1PC5ctB0rHjW5I/f3PZuHG3ferdo79jjx7DbHV4iH1qLOtvPG3aAvvUm3buPGg7OGpvfhfn3yo+zr9hQj+XGrAOWJfE/v8hIkrPtI51LtWqPSPjx38tly6lXB1nldC6N7Vp3cZ9PxERUcrx8vKS+vXr2+r5dbJ161b71LTplqA8e/bsUrFiRfn5559l8+bN9qmx0Dr8t99+M92q1KhRw/QbM3fuXPMAT7QoVwjQtWm9n5+fNGrUSFauXCmbNm0y09SqVavMlYIVK1bYpxARESXMH39sln//PWx/Fdfx46fln3922V+lXwcPHpcDB45LrlzZbPXvGomOjrG/c3f4+npL5cqlZc+eQDl79pJ9aqxz5y7J7t2Hzbpt377PhAtWR4+eMsMKFUqYIRERpQ9lyhSRESNeknHjXneU8uWLyYcffiOvvPKeuYhLRERElBgtWrSQbt26yfDhw00+7Nw4G913IyfGMy3vpVuCcm9vb9NpOsLuRx99VLp37y7vv/++DB061KT/6Iz9+eefl8aNG5v5q1WrZlqKo/uVb7/9Vn7//XczPwo6bS9QoIC0adNGatasKU8++aTpc0bnefXVV02IXrduXbMsIiKihKhUqaQ0b17HhOWuwuPNm/dIQICfOdlPLV26tJJt2+ZKqVIP2aekLGwXwvGqVUvbDijayPLl680FgLutevWypuX+kSMn7VNiHThwzBzcDBjQQ3btOmSCc4Xp27btM3+nwoXzpvpvlRqyZ88sS5ZMlmHDetqnEBE9GAoVyiO9ez8lAwc+6yizZo2WTz4ZIEuX/i379x+zz0lERESUMGhIPXLkSClZsqQ8/PDDtnPELjJnzhwTjE+bNk1atWpl8uMSJUqYXNrX19f+ybvLZR/l6Ij9xx9/lDfffFN2794tgwYNkk8//dR0yTJ//nwTcmMDARuAgByB+LBhw8wDO9Eafdy4cfL666+Lu7u75M6d23TgPmDAANM1C+aZN2+eCdcnTJjgWBYREVFC5MmTXVq0qCvr1++Us2cv2qfGCgkJld9/3yjt2zc1J/tWeG/KlP9JnTrdzS3eGE6dOv+W1tCArjeGDp0sOXI0sdWLj8ukSXPM51VCugXB/PgcPo/va9bsZVv9ukqiom4+6yM+2K41a7aZFt0tWtSRoKAQWbUq7p1Zeov46NHTzXuNGr0gmTM3kM6dB8rWrfscV+m1G5HZsxfJ3LnLpFKlTma7XnppjKPld3zwG5YrV8y0HldY7oYNu6VCheK2g5yaZjsRnCusK1r7V6xY0lywcPVbnThx1nw/1gPr8/PPq23Ltb/p5PjxM/LCCyPNtuFv9v33SyU8PML+bixshy4PBfMjwFf6G+Dv3b//R7b/Q4/Iq6++J8eOnbrtdOvt99hu/K74fbEuRYq0lrfemmi2xQqvX355jHkf87Vq1VtWrtxgWkkQEaVHuJO4SJF8phuuiIhI+9TYegj7zyZNepp6Tvd5qJO0DgKdLyH1L+CzqK/Q9diXX/7sqDcTUq9qN17bt+931AvYHw8bNjlO1zH4DqwnloFloasz3MlFREREqQO9jyAfXrJkiWTMmFGGDBliO4ZoYjJkdPG9fPlykztXrlzZ/om7L96HeebLl8+0IkffMTiICAoKMhvSsWNH0+rcCmE5nmh69OhRM+8///wjTz/9dJz5smXLZgJ3PPUU82C5ffv2dYTk6PJl6dKlJmwnIiK6k/r1K9tOsMNu6X4FgemxY6elZs1y9imxcHI9cOAkmTBhlnTq1EJWrJhqO5Gub8LwAQM+jhOCAwLo//47K99/P0569eoon3zynQwe/Gm8J/XOzp+/LC++OErmzFliq/+eM9/XoEFV27LelYkTv71jWI6uYxAsN2xYVYoWLWCGixevcXnL+08/rTLr9swzrWzf956ZhhP+v//eYcbVtGnzZdKk72wHJC/K1KnvmEDg6acH3TYYyJw5kwnEDxw46th2BOE7dx4wIX6xYgWkYsUSJjhH/Q5nzlwwy6xVq7wJV5zhb/TMM4NNiDF58mBb3d/LhPi//vqnfY6bAgNPyrPPDrcdJ2SxHTR9YO4kePnlsfLpp9877iZAn7YtW/aW4ODrtuWMNiUsLEIee6yv/PnnFjOPevfd6WY90Tryscca245DMt52utX8+SulbdvXJXfubGZdPvjgTdMtTadOA2Tv3tgu6NCyvk+f8bbhZfnoo/5mviJF8tv+Hv1l9eq4XdoREaUXp09fkAULVkqHDrh4HHu3FuqxsWNnmuAa+81Vq6bL558PMvtfXKzcsmWvmQ/1K+pZ1Leod5ct+8JR/37++VyXd4b99ddWGTFiirzxRhfp0aOteHi4J6pe3bfvqAnJ8+fPZerx555rJ1OmoA6c4/i+hQv/tG1PPzMP1ql+/aq2dfrcdHlGREREt4cW31OnTjVZLjLdhMIDPuvVqxcnR8YQDavRtbdz5ny3xRuUExERpWU4sa1Vq8It3a8gYC5ZspDp8sNq2bL1JlD+8suR8uabXUxLaHSr8e23Y0wA6tynOU6qZ84cYausa5v5p00bKj/8sEK2bo098b8TnIAjLP3f/z4wJ/n4vuHDe5kge86cxbdtiY5AesWK9fLII7XMtqCv8Pr1q5h1dBVqX7lyTSZMeENeeqmjtG7dQGbMGC6NGlUzrfCsFwBwEPLVV6Okc+fm8sQTj5htz5jRV/7v/35zGVSAl5enVK1axtxqryE9LkRgPdAti7+/nwnMEZwjQAfM6+fna1v3wua1FdYhtvVflAmldV2mTHnHtq5h9rluQuvFkSNflvff72v+Fhj/8MM3TVBy6NBxs33Yzscfb2rbtpFm+1Fmz37XdPmCAN76GzRtir/DS/Loo3VN0SA/vukKIdGMGT+aedD9ANYF6z1v3gTTpczcuUvNb4jfBd3UvPdeHxMoYT4dR2jEVuVElNahvsyZs4lpZa0FLbtx4fLjjwfY3stq5sPFZOz7hw590dSTjRtXl27dWstnnw201S0+jnoOdRfqWdR/qAexX0T9O25cH9t7O83FVSuE5Lgg+vzz7W3L7WpCckhMvYp6qk+fp8336PchdMeDsVFnoj775ptFZn1xwRbzYBveeKOr7Nt389lbRERE9GBhUE5EROmSt7eXNGxYLU73KwhE0bq4WbM64uvrY6YBbhNft26bCZ5r1Chrnxp7K3nt2hWkXr1KsmrVRkdYnDdvDnnssUaOk3OoUqW0aTmNE/g7uX49TDZs2GW6iEFwijBfC1rEobUdWlPHJzDwP/M92D4E0VC3biXTDYqrh3oi2K1Zs7z9lZjuTnDSv2vXQRPwqtatG0rp0jf7Cc+XL6c0aVLDdCcSFBRsn3orPJAToYIuC8vFb6QXI9B6Hy37EUwgCN+586BphY4HfTpDq+8dO/abYNoapOO3atOmof3VTWiVjr+bBtcYogUhAuft2w+Ybk62bNkjmTP7m/8L+juvXbtNPD09TF/pCHMUvhOt5J3FN13h74jtwv8J/G30e3DhBP8XNXzJksXftGqcMWOBCZWwnlguLgq8/XYPcXPjoRcRpW2uHuaJQHnt2u2m9bZesH3ooXyycOEkc1HSKk+eHKa+Cg6OvUiJ/SOet4GLrgr78p49H5cFCyaaC98KXWYNHPiJPPVUC3nrrW6Oejix9SrqIFzMtdYd6DrmzJmLcuHCZVN3oEuxdu1wB9HNPlBxjIA6h4iIiFIezhWTWu4Wnq0REVG6VaVKqTjdrxw+/J8JRTHdCsEyTrILFMhtWlBb+fh4m0AX/ZZqv6t47RyaZsqU0XQzghNsa/+srqBF+IkTZ0xf2uj7tGnTXo7SrdtQc5KPfrddwUEAWvMBQnyFUBst6F091DNfvlym1bkVAgy0YLb24Y6QQEMD0OAAv5n1YZzOChbMbX47/M7YdoTDuHCQNWuAeR9di+TOnd0E6AjCDx48ZlqZO68TREREme8qVCivuLvHPQxB+O4MwXNAQNy/BVoz4vfAQ0YvXrxigpVBgybF+Z1RRo2aZsLqy5ev2T+ZdPh7Yr179hx9y/egpfmFC1fMxQS0LsdD8GbP/lWKF28r5co9Yfo+Z2tyIkovXD3ME3fprF49w9QpX375U5x6EOO4k2bFin9kwoTZ8tRTA009hn0mAuyTJ8+ZC6vWQDo+eEYEuvJCS3VrV2OJrVdxUdJS3d0CdysB6i4rXPjMkSOL/RUREREl1bX9R+XorEWyc8gU2fjcu/JXqzdlRY0e8mvhx+QHt1ryY0BTWVyio6ys+4Ksbd9fNvcaL7tHzJCTP/0h4eevmHMna1Du/BolNdzVoNx5g7QQERElhYbHaFGGMBwtisuWLWqmpxYE63hQdUKMGvWKrULf6rIMHvy8fa640CoZrd/R53WFCk86bnv39a1t+uVGgOD8UM/4oDV6QtYVLfZuNx+CarSmx23tZ89ekm3b9pvfXYNuhAq4OIH+uhFe48GelSqVNO8lhqtg/XZwa79as+Yrl7/z1atr4lxwSA5s0969P7r8nk2bvpPixQua3/KVV56UwMBfZdGiSea7Fyz4XWrU6CIffPDNHfumJyJKq0qVKixNm9aQHTsOyLVr183+DA/IzpevuRQr1lYGDfpUtm/fZ+7qwt1AgHO96OiE7/f69n3G7M/Rxzi62HI+V0xKvZoYqAtRzxMREVHinF25QXaPnGkC8QWZGsvi0p1kw3Pvyt5xX8uRWYvk9JJ1cnnLPrl+IvZu36jgEAk+/J9c+me3nFq4RgJn/iR73p0p6zoOlF9yt5DFDz0u6zsPkf0fzZHLW/fb6voYc0xhDcyt4yklVYLy4IPH5dAXC2RTr/Gyps1b8lfLN2V91xGyd/wsubh+l2MjtDhfFSAiIkoI7X5l06Z/5fDhE/L339vNa0y3QqCLUBUtp69fj/vQzrCwcNPqDbeK+/jEfg6v9ZZxhZbSaLGeI0dWR0AcHy8vD9MqHX1oa6u1hEI3KCtXbjRhAB6MZi0IXhs0qHLLQz2vXAm6pZU7HpiJW8+trbTRt6sV6twjR06ZFuHa56wr2F4E4+h6ZO/eQPObITBR2o85WvShOxR0e4MWia7ob4NW8c5dyKD1tzOEMfjtrXCbPQJ5bBsuBpQoUcjcQp+asM4Ih+K7E8AZur9BX+lffz1K9uz50fStvmjRn6ZlJRHR/QB3F40ZM0PGju0tISHrZcuWOTJnzjjp2rWVqQcAF0BxBxG65rI+LwLQd3mDBs/b9t+H7FPEPPuhdu2K8uyzj8n06QvMHUOQnHrVFe3WzHrXFeAYwdpdFxEREcUv+NAJ2Tlosvyc81H5o1kf+XfUdBOIR4VcF/+SeaRgp+pSbuRjUm1qN6n306vy8N+DpPXhsdIpZpp0uPyJtNw3Wpr80V/qzOslVT59WsoMbil5W1YQ3wLZ5Pp/p+W/+atk54BPZWWNHrKiUjc5+Mlc09ocz7tClqzFOVtOjhQNys+t3ix/te4nv5V8Qra89r4EzvhRTv22Rk4vXSfHv1siu4ZMkd/rvSgrqvaQwK8Xmg3TqwHWDUqJDSMiogcDWjKjWxU8IBIBd7VqN/tAVQhy69WrIitXbpBNm/bYp8YGxThRX7duR5y+TNEX9xJU8PbWv5gPt5QjCEZ/5neCE3AE9s7fB2gNjpbiWJ4zBMfoK71s2SImaMCD0aylVav60q5dExOkI1BXWCZCfIVuZH755Q+zTejPVWHZ6J9V4TPLlv1tQgkEu7eDYDw8PEIWL15rgmnnVvvox/zixasmxMffJL5b1/Hb1KhR3iwHLc8VwoqltuMFZ3//vUPWrNnmOC7A3wTbhgsfuBCA7nDq1assv/76V5xtw3xjxsyUtm37pkg4Xb58cdNvLR5IZw17MP7SS2NMv70Ib+bOXSbNm79iuiFQuABzuwsRRETpAeoM1De4c8vfP6OpE7Gvx8Oj9Y4g7KtxURHdTSk8QwN1lvVh2NhHo47EcnCh2goXZ7t1ayNFixaQyZPnmf1sUuvV+KB7MvSb7rxPx3om5FkkRERED7IjX/1qukz5rURH2fv+bIkKD5bCXWtL9Rnd5ZENg00Q3nLfKKkzt6eUG95aivWqL/nbVZLstYuIX5HYet8zs6/4l8wtORuWkIJPVpMSvRtLhbHtpcFvvaXt8XEmSG/8ez+p/HFnydW4tATtOWxC80V5W8rGp4bKOdsxgebKzi3NtSRFigXl2/tPktVNX5XTthNf5Z3LX7LVeMj8EBkL3DwAurJjv2x58T1Z32GQaXIfGRlpNs56RSA5G0VERA8OBLYIhIcM+cycvLvq5xpatKgjHTo0lRdeGCkff/yd/P77Rnn33Rmmb1O0YEMQrbAMtP7t1+9DWbr0bzPf669PkJdffjLOw8hup02bBiYc6NTpbRk//mvzfe+/P0tee22cCRXwcE5naGWNMLt58zqmBZ4zBPnYjgIFcpn1Q3ANCCWefXa4zJ69SBYu/NOMoy/Xl156Ik7rejwI9LnnhptgYN685dKlyxATcnTp0tJxkSA+CDLQXzi6f0H/49oaT6H/WSwL/dLiN8LFifg8+eQjJqSwrjP6/kYA7gzL/eyz783fAH8L/E0+/vj/pE+fp80y0Odtjx5tTYvEdu3eMNuF7Xz99ffl88/nytNPP5oiXfHgggNaOCIIf/rpQWadf/pptTz//EjTbzweZoffBBdqEJijn91vv/3N8XefMGGWeWgc+nonIkrLcOcM9p/Yd2lB3dWqVW/TPdjTT7c0+3g8kyEoKETefvtjs09EUN2v30Tb/nm8ZMp0sz9ydEGFehYXFbX+RZ2N7+jeva3LC6vY5774YgdTLyxa9JeZlpR6NT64OIw6HftvXOhEvTFt2gLbtLGm9TsRERHdKjjwP1lR83nZ+MJo02MI8l60Fm/33wdS65vnpOgL9UwOnBIQpOdqUkpK9m0qjVe9KW2OjZdyI9qKX9Ecph/zNS3flG29xkvElSspmiunSFD+9xNDZP/E7+yvREq+8bA02zxU2p350FxJQNP6NsfHSpuj46Ti+I6mCT2cWbxW1jR/Xa79e9h2sh/u2DBXVwKIiIhc0e5XoFGj6vEGtAhU33+/r+2E/ln54Ydl5mFgS5aslYkT+8kHH7wZ5yFjuL37ww/72eqkaOna9R1ZsGClTJjwhrzxxjOmD+qEwAPCvvxyhPTv392Ewfi+H35YbjsJf8Ksh6uHmqFVHAIKdNkRX/cu6Ae7WbPasmHDLtPyHXr2fFxef/1pmTr1fya4zZs3p3z//XgpU6aIeV8NHfqitG/fVIYN+8I8/LJ589oyffqwWx5m5gpChYoVS5owuGbNcvapN+F9XKjAQ1DRuvx28H34Xnz/yJFTpW/fCab/74kT37LPcVPp0g/JJ58MMA8S7dx5oLkoMGPGcHnqqRaOcB8BycKFk6R8+WImMHnmmSGm65n/+7+xceZLDiwDofvChZ/Y/g94mAssCPfx/2HBgom2/4NVzXxobf/NN2NMID58+Bfm7/7LL6vlvff6mL/RnbrtISK61/CMDDwMefDgTx0F9VPHjg+bB3ri4jTgwuCXX440D9ps3/5Nc0EZddvSpV+YfS/urEFrbUxDPTtw4HOO+nfbtn2mm5bOnZubZbmCi8adOjUzrcqxT09KvXo72G9j/426HvXGrFm/mGXjoigRERHFFfjlIllWoYtc2rRbcjYuJY/+O8rkvWgt7uF/89lRqSVjwaxSbkQbaX1orNRf2FsyFsgmx79dLKuqvyCX1u6QiIiIFMmVM9hmTlYKvfH5MXLk64VmPJfth6o6+RkJKOO6X1IVExktW3vPlcAZsa0DMpUpKrV+G4f7scXT09OcgOJBKih4YjkKpMSJLhERpS2ohpZX6W7uNmp/6WPxypLR/g7dCcIJtLCGjz7qH+/DMNElSteuQ6Ru3coybFhP+1RKi5ZXHytXth4X78+6S1BAgPj4+Iifn59kzpxZsmTJYoaZMmWy/a19zfGS9TiJiMgZ6ti1HQbIqV/+kmZbh0rWygXt71By7f9klezoN08ydm4oFx8tL15eXmZ/7W87p8X+GgXj2F/jPeyzcT7Lc1oiIkpvDnw6T7b1nSju/j5S4d12UrJPE4S09nfvjaiQcNnx1v/k8PQ14ubhJbWWfiR+lYuZ+laLnitp/ZuQOjhZZ1a4mqAhOTpbb7yq3x1DcnDzdJfq07pImUEtzevgvYGyZ/BMCQkJkevXrztal1v7LyciIiIiIiIiIiKiu+Pyln2yo9+nkkHcpdHiPlLy9ab3PCQHDz9vqTa1q3lYaExUhGx7ZrREnL0ioaGhJldGC3NtXY6GA1ruJMlBORa+e8RUM47+x2t997wZT4wK77WXAh1jb5c/PW+FBK/d5QjLw8LCHBuVnL5liIiIiIiIiIiIiCjhIq9ckTWt+ktMdKRUm/6M5KhX3P5O2oGHheZvV0XCzp2T3b0nSHBw8C25cmLC8iQH5Ue+/k1CT5434+VGt07yrfLlx9zsA+7M3N8lKCjIbJReAbC2LGdYTkRERERERERERJS6/u48QkLPnZPirzaRoi/Wt09Ne2rPeUEyly0gl1Zvk/NTfrltWH4nSQ7K8YRRQOfpRZ6ta8aTIqBUHinUqYYZv/j7FrMxKGhZjrDcukEalhMREZGYPsmnTHnHlPj6J4fs2TPLkiWT2T85ERERERER3VHQ3mNyZvl60+VKxfEd7FPTJndfTyk/pq0ZP/3tMrl27VqSG2EnOSi/sHa7GeZpEfvU8+TI06q8Gd4IDROPHccc3a9Y+5WxJv8My4mIiIiIiIiIiIhSXvChE2aYpWpB8cgUf6OstCJngxJmGHnhqsjFiyZb1kbYiQnLkxSUh527LBFXgsx4QLn8ZpgcWSoVsI+JhB4/Y0JyDcrRTB4bo32Vs1U5ERERERERERERUeoIPhwblOdqlPb6JXfFK7ufZKlYCK2rJeLIpTsG5fFJUlAeHXLdPmZbkay+9rGk88p6s3/zqOAQswEIyFG0RblzfzIMy4mIiIiIiIiIiIhS1vl1O83QO09mM0wPfPIFmGHo7iOOBtiuGmEjU44vV05SUO7u42MfE4kMCrOPJV1kUKh9TOSGh4cJxhGQa0ie0I0hIiIiIiIiIiIioqSLvHrN9m8GubT5WOyEdODqzpO2fzNIlD1XdtUI29qi3FW+nKSg3DtPNvHwi20Ffm3vGTNMjiu7TtnHbJuTLZNZcRQE5NbW5Ox2hYiIiIiIiIiIiCj1+OTIaoYhh8+bYVp3IyZGws7FdhOewc/bkSlr0a5XtLeS+PLlJD/MM0fdimZ4ZvkeM0yOc8v3mmEGD3cJLhxgAnENy7EBGGKatUU5A3MiIiIiIiIiIiKilOWVLbYbk+DA9BGUB/17Rm5ExZhxhObIkzUsxxDFmi/HJ8ONJCTO+MihyfNla58PzOs683pJwSermfHECj15RRYVHGIbixbvmqXk0ktNxMPDQ3x8fCRTpkwSEBAgWbJkkcyZM5vXmO7p6Slubm6mEBFR+oY6ZXmV7nJlx36pPqO7fSrRg+nQlD/kytbj4v1ZdwmyHQPhuMfPz88cB1mPh3x9fc3xEo+HiOh2UMeu7TBATv3yF+vYFBZ5LVx29JsnGTs3lIuPlhdvb2/JmDGj+Pv7m/01Csaxv/by8jL77AwZMphCRESUluH4YfsbH8mBT+fZXmWwHUN0k6Iv1It9M41a32m6nJi/1TZ2QwJ6PyYXahZ2ZMs4h9Ki2XJ851JJDsqjgoNlUaEOEnklSDKXzSctdg23LS3xlf7G52bJ0dnrzbjfW+3kXNm8jqDcemKIwFxPDBmUExHdP1CnaFBORLF8Pu8hV/39HQd32nAABcdHDMqJKCFQx2pQTqnD76lGJihHGI79M8JxPYdlUE5EROkRjh80KPfw95UbkVHSbPM7ElA2r32OtOXQlD9l62vfi1+hrBJy/JL4v9bWEZSjbnZuhH27bDnJQTmaqR/4ZK7s7D/JTCv0VA2pPedFM55Q+95fJjsH/2jG0Zr8Qs9GZgU1KLeeGFpTfwblRET3D9Qpu0d9aW6PikF3WxGREhUeIRFhYWZoXkdGxr5/m1ukiO4nN5qXvKVFuRY9HmJQTkR3gjr239Ffxd6CjG4tbSe6kba6NdJWx2KIehbTUf9i3iScGj7wMvh6yqWWFW4JylEwjlbmOH9lUE5EROkFjgc0KC/Vr5ns/2ilZCqeU1psHybuGb3sc6UNV3aelJU13pMMHm5SuEtNCZy51gTl52sUMnd7ucqW9SK2q3OpZAXl6NtlY6dhcmrhH2Z6/nZVpPr0LuKd09+8vp1dQ36WveOXmHG37AHiNbijnM/sKe7u7uZAwjkox5AnhkRE9x9rnYKnUV+/fl2CgoLk6tWrZhgcHGyeVK0P30hCtUWUriBEwTEOjnesB3coOLhDEMPjISJKCK1jUX9qHXvt2jVTx6JoHYv+OzEf5mc9m3AafGN/jBNunHhbg3LryTjOcxmUExFReoBjAQ3K6/34ihye9pecWbZH/EvlkerTukjOhiXsc95DtnU8+MVfsnvozxJ5NVQqTugoYacuy4FPfo8TlDu3KNe7vZA9o252PpdKVlBuOka3HWCtf/wdubh2u3nPK5eflOzTTIo8W0d882cx01R0eKQcn7NJDk1eLZe3HjfT3PxtJ3u9W8mZIlnMymEl9SADBxZ6kIGNwsZhI/XEkAcZRETpn7VO0ZN4nLjjBB4n8yEhIeYkPiEP3iC6H+D4Bsc5GpRrn7c4FsLQ+XjI+eCOiEihjkVBHYowPDQ01NStuBCNonUsLkYzKE88Db6dz2H14ib219aTcZ2fiIgoLcOxgDUoz92sjGzvN18CZ6wx7xfuUksqf/REghpKp4bLW0/I5l7fmKGHn7eUH9tOSvZpItvf+t8tQTnOpTQoR0m1oBxFnyAaZTvA2vHqRDk1f5V9jljouzxj4eySwSODhJ25Jpc3HRfbp+zvingWyyte3R6W0/l8HQcY1pNCa1COcUzTq/EMyomI7g9ap+AkHnUKTuIRlGtBcI6Te7zPFuX0IMDxDY5znIMXDcn1eIgNB4joTpzrWITiCMcRlmsdi4vUejFa56eEwf5Xz2P1rmg9j8U+G+OYhvd0f819NhERpXU4FrAG5fnbVzbTz/1xQDb2+Fqun7gs7j4ekq9NRSn4VA3J17q8uHl7mnlSS/iFYDnxw2Y5PneTXFgXiJWUHPWKS61vnxO/h7Kbebb3++GOQbnmyykalIO26sNBFQ64cJB1fv4fcmLaIgnZc9g+F0Jxj9hRw3bgZfvXPYufeD9SWc40K2MOFPSgASd8eoCBE0FtPaVX4/UgAxvCgwwiovuDnpTrxVecsCMsx4k86hZt6aYn8UQPAhwboSAQ1wM8LdbjIT2GIiJyRetY1J/x1bF6MVrnpcTR81lt8IWLm7q/xrj1wiYKERFRWofjAVdBuULLcgTSQXvPmNcembyl4BPVJFfTUpK9bjHJVDSHmZ5cl7cdl4vrA+XUwp1yZvke+1R0/V1Jir3cSPK0KGufEuueBuX4GA64EGzobXzaOiFi3W65su5fub7zoK0cMfO7588uXuUKi1uJ/HK6Uh4zTcNurJRehXduOYWiG8GDDCKi+w/qE+c6BSfyOHm3nsBra/IkVltE6Yb1+AjHPRqWIyBHsR4P6bxERK4417EallvrWEzTOlY/Qwmj+1/r+Sz217rPxpAXNomIKL3BscDtgnJ1dtV+OTjpdzm1aKd9Six0yZKzQXHJXqeoZK1aSDwDfMXdz3YOk8nbdJXilTWjRIfZzvFDwiUyOFyigsPMePiFELm04YhcWB9oAvIo2zSFh4g+1LWmlHyrufiXyGWfGtc9D8pRnFsnWG+Xvxb4n1x79mMzf3SvRySiTkkzv5UeVOgVeBxQYIWx4lrw2tp6iieFRET3F61TcKKOUBz1ip68a0iO+iOJVRZRuqPHOnqMpI0JMMRrhi5ElFDWOhZF61ctrGOTR/fX1rBc99nYX/PCJhERpTc4JkhIUK5Cjl2SI1+ulQtrD8mlTcfiBNzJ4Z3LX3LULiI5m5SWos/XFQ9/H/s7rt3ToBzwUefWCbiFDy3LTevywP/kzJNjzLzur7WUyHql49w6jwMFPQHEyusGoKCrFe2HU1tPWU8KeZBBRHT/QH2iRU/kUbTO0BN4FKIHgR7r4LhHwxc9ZtJpPB4iooSw1rF67qYXoVFYxyaf7o91X20t1n02ERFReoBjgsQE5c7QZcqlTbay4bBcO3hOoq6Fm/A8OiTCDCODwsx8aFmOFubutuLh5ymemTNKlor5JUf9EpK1akHxK5K4LlzSRFCOogdcCMtxCx9alqNcPXRcAlsPMfP6vtlOouqXcRyUAVZGr7ajaGtyDcjRBYs1JEfhSSER0f1J6xStV/TEnSfw9KDSYx4Ua9CiQxQiooTQetRar1rrWhRKOt0fW/fX1n21FiIiovQAxwXJCcrvlXselIMeWOEgCyG4tixHuXLwmOxu8oaZL+ugTnKjcQVHX7OAldGAHAXBuBa8xgbhfefWU0REdH/SOsU6bn1N9CDRYx4d6kEcAxciSgrnOtX5NSWPdZ9tLTqNiIgovcBxAYPyZMAiUDQsR0EgjhblG2v1MvPkHdldPJpVNS3N8T7mRwCOINzaehwbgXGssK60tSU5DzKIiO5v1mopBaooovsGAxciSi7WsXcH99dERJSe4RjhQQ3K475KIhwAoGDhCL/xZVgZBN9KVw7dqiAIxzgKVlD7I9cuVxCeYxlYFkNyIqIHi3Wfz8LCElv0rjoUIqKksu5XWFKncH9NRESUfiU5KMfVBWtRenCAgBtht/KyjWurcQx13FoQpmtIrqm+9QDD1fcREdH9S080WVge9EJElNJc7WtYkl+IiIgo/bpj1ythZy7K30+9Y3/lQjyfxmJjwsLk0qa95nXGYgXEK0fm2Ad56lfaDiRMGG4v1mDcepBRemB3yd2iVpxpruYjIiIiIiIiIiIioqRBpss+yuMRcvSU/Fqkvf3VvVFtxmAp1L21GUcw7lx0OhERERERERERERElDYPy27ilRbl9bv3Y7T6OFuWXN+8z49qi/EZMjOMzjrDb3qLchN0uAu8S/Z6R7M2qO1qco2Bci/mcjQ6JiIiIiIiIiIiIKHGQ2zIovw3MghITE2MKuk/RotNcLSbq2Fn5s/pzZrz0hFfEu20dCQ8Pl6ioKDM/VggrrQUP77SG4VY6De/jc9YS32eIiIiIiIiIiIiIKGGQ2T6oQXmiHuapYTmC7oiICBN6h4WFOUpoaGicEmGbpqKjos1nIiMjTcEyErocnY75dBn4rAb1WC9XQT0RERERERERERER0Z0kKCjXIFqDcgTUCKoRWGvQ7apE2t5TMbbPWENyHddiDcydl2MtGpS7Csl1SERERERERERERESUUHcMyq0htHNBUK1Fg2sMtdyIuRlco29y6/zWYv2M8zQd1+larOtBRERERERERERERJRUdwzKtd9v7QPcWtCPixbt18Xad3gGt5t9huNhndb5rcX6GedpOq7TtVjXg4iIiIiIiIiIiIgoqRLU9Yo1lNbgGg/eRMfnXl5ecR7IaS2etveUm+0zmB9FP6tD63J8fHxuWY61YD7Mr+G5NSzXIRERERERERERERFRQiXqYZ4alCPgtgbbWnx9feMUL9s05eHp4Qi6Nex2tQxXy9Hp1qAc6+AqLCciIiIiIiIiIiIiSoxEtShHKK1B+e2Cbi2e3pYW5bbPWINu/bwu43bLQdH3MXQVlBMRERERERERERERJUWCW5Q7h+XW7lesobcWTHO3FYWuVzC/Btw6bl2GdTmulmn9jHNIzrCciIiIiIiIiIiIiJIi0V2vOIfl8RWE2QjHlc5vHVrHNfzW4vzaOk0/q+vDkJyIiIiIiIiIiIiIkipRQTlYw2ktGlxbi3nPzRJg20adP6dF53f+vPW1TnMuRERERERERERERETJkeigXLkKrZ2Llb62TrfOp+MJLURERERERERERESUsrzzZDPD0NNXzTA9CD0Zu643MvuaYVIkOSi/E1eBtvV1fOPK1TQiIiIiIiIiIiIiSj1ZKpUywytbj5thenBpy1GTJwcXDrBPudWd8uZUC8qJiIiIiIiIiIiIKH3JWrmkGV7alj6C8sigMAkJvCDuObNLsPvNZ2YCwvGENshmUE5EREREREREREREBrpe8cqWxbQov7D2sH1q2nVg4gozdH8ouxkqa0huDcvjC84ZlBMRERERERERERGRQ8l+nc1wwzNfSXRopBlPi67s+E/2vLvEhN+ezas4wvH4yu0wKCciIiIiIiIiIiIih+L9u0q22uUl5L8LsnPQj/apacuNqBj5p8sMuSHR4tOqppy290+uobibm5ujJCQsZ1BORERERERERERERI4g2d3dXWrOHiEePt5y8LNVsrX3XIm+HmHeSwtCjl2S1U0+lKA9Z8Qjf04JaVPOTNcwHOtvLdawXOdzxqCciIiIiIiIiIiIiOLwLpRb6q74THzz5pJDX6yWZRVHyaVNR+3v3juBX64z63Jh3WHxKltY3Pq1lRAPDxN+IxDXcNzDNg0lvrDcGYNyIiIiIiIiIiIiIjI0TEbxq1hU6q6dKjlb1ZHgwAvye60Jsq7DVDm/5pB97rsjJjJajn67QVZUHyube34j0SHRkrFjXbnwRnO54O9u1lVDcoTjnp6ecQqDciIiIiIiIiIiIiJKFA2UETBLgI8U+6KfFB/VU8THQ07+sk1WN/pAVlQfJ8e+22D6Ck8tEZevy573lshvxYbIxh5fyeWtx8Ute4D4DX5czrQo5wjInUNyb29vU7y8vMxrbVmO+eKT4YaNfTzFBR85Kb8V7WDGK3/RXzJ3aChhYWESEREh+FqspI+Pj/j6+poV13T/dsk+EREREREREREREaUO5LYoMTExEhUVZfLc0NBQCQ4Olshj5+TC/FVy4ee1Enn2spnfJ1cWydeuomSvVUSy1y0qAaXzmOlJdXHDUbm4PlAurDskp1fskuig2L7RPUrkF+9G5eR0zcKO7NgakmtAjqw5U6ZM4u/vbwrGMQ2hOQJzzO8qe07VoHxdhwHy389/mvFMxQpIjd8+khCvGxIZGWl+bKyYBuUYMignIiIiIiIiIiIiurc0KI+OjjZZLsLy69evm7AcJSQkRNzX75WrizdLyNpd9k/F8srlJzlqFJOs1QqJh7+PePh5i0cmb3G3DT0z+0pMRJREh0RIVHCYRAZH2MbDJeJisFz8J1AubT8m0dduPjTULZOfeNcrLRkalJIztuVqZoyhq5AcGXPGjBlNOK4loY20Uy0o395/kuyf+J39Vaws1UtLiXkjTYty0KAcK68ri2nxrSwRERERERERERERpS5ExhqWo1U58lwNy1EQlKNgmndQkNzYd1Yi9p2QiIMnJeLQKYm+EmJfUiJkyCAeubOKe5E84lE0j0jR3HKlgJ+EucV2l6KZsbYIR+itITlai2uDbD8/P1OQOWvujPc1JMfnXUmVoPzQlB9ly6vjzXjGArkkY+G8cmHdDvM6V8vakmfiK44W5Vh5bVGuKxxf83ciIiIiIiIiIiIiSn0alqNVuYbl4eHhphsWDcwxjrAc0/E+Wp9j/mzngkVOXxIJjZKYsHC5ER5jG4aJhEeIuHmKeLuLeHlJBm83cfP2khs+7hJZOI9c8LnZ37nmwxhqsbYiR7aMoiG5NshG0czZ2jhbM2ddrrMUD8pPL/5b1rTtJzdiYsQzIJM0XjNFvPJklb8avy7X9gaaeQo830YC3uhgVlI3QIPyhKw0EREREREREREREaUuRMfaBQuKhuUIx1GsQbmG5QjVUTA/PqtFg3eNo+OLpTUT1nwYxRqQa0iuLckRhqNoY2wNyDUk18/osuKTokH51V2HZUWt5yQ6NEwyuLtJw+WfSeY65WN/wBPnZF2TPhJx4ZKZt9jo58WnQ31HUK4bgI3UFcfGExEREREREREREdHdp8E2inbDglbjyHtRrCG5BuV4H0XDcleBuS7bFQ20tWhAjiGyYw3JUTQQ16KNsbVBdkJDckixoDz05HlZXq2HhJ29YF7X+PIdyd/lUUdn76ZsPyzbOw2LDdJtG1b6izfEq1FlR1N43ZDEbAARERERERERERERpQ7Ex1oQdCP41lbjGpg7Fw3KrWE5ii5DI2kdKs2CEYpj/HYhuQbi1qLvab6sy0lIxpwiQXlk0HVZWes5Cdp3xLwuM/g5KT3yBcfVBWsz/Mi/dsj+1yaZrlncfX2k/HcjxKNCYUdQjuRfNyYxG0JEREREREREREREKc8abGvLcA3BMdRW5Fp0mnNQriE5hro8K82BkQtbi4bkzmG58ziK9XOJyZaTHZTfsG3g6qavyfm/tprXBTs9ItW/HWl+BITk2uweIbleUYhauF6OjJpt5vfMnlUq//KeuOXP7gjKkf5joxiWExEREREREREREaUNiJK1aGBuDcKRCWs4bh3qfPoZXYYuE6wZsDXsRtEW4hqGa3asQy3WLNm6vIRIdlC+4dnRcnT2r2Y8e61y0mjVZImyrYCG4tb+afRHwVcGTfpZTs9abD7nV7KwVPjfMMmQJYujPxkNy/XHSOyGEREREREREREREVHKsgbcKJr3ahAe39BarJ+3sgbcKNagXIfWcX0fxfo5XVZiJCso3zNmpuwaNt2MZypeUJqsmykZ/H1Ms3prSI7X+EEUVtLL9rVH+34uF1ZuNtOy1KkgpWcNFDenp5LqVQHnDSUiIiIiIiIiIiKie0NjZQ28URCCW8e1uHpfP2ul2a/mwBqAW8NwV8G4Fv1sUiQ5KD8+b4Wsf+odM+6dI5s8/M8M8cyf02VIjh8AsAGa9GOF3W3v735qtARtP2jez92hsRT68GXTmtwalluvFCR1Q4mIiIiIiIiIiIgoZTmH3hi6Ktb3dNwVa+Ct48iFrUPre87DpEpSUH7xn92yqmEviYmMMg/kbPLHFPGrWMx0rRJfS3LtO0aDbzBXEC4Gy+aWb0rYyfNmWpH+T0vOV9s7wnJ9WqlzNyxERERERERERERElDZYY2bn8fjeA33tnPneLgh3NS25Eh2UBx86IStqPi8Rl69iTaT+LxMlR/MajpbkGpTjNYJz0IDcGnoDgnLMH3nwhGxsO0iirl4zyyzzWT8JaF3rlrBcW5bjB0jJH4GIiIiIiIiIiIiIUk58gXhiOefAqZULx7ZVT6DwC1flj0d6x4bkNhXf721CcgTi1qDc2pIcwTaCcWvobS1mWslCUmX2UMng6YFfTPa9OUnCN+2Pszx8h3b8jh81qT8sEREREREREREREaUubeysxdpbSEJKfPOnlgQH5dGhofJni94Scuy0eV205+NSrG9nE14jyLYWTEOQjZBcW5KjYFxblGvR9zPWKiPlP3/LtCi/ERklu198X24cO+sIy1EYlhMRERERERERERGlX87Bd3zlbktYUH7jhqx74h25vHW/eZnr4ZpS4dM3XLYkxzQE2Ej7tSW5NSjHNLynLc2tYXnWtnWl2IBnzHdEBQXLzu5j5caFYMeydfkIyhmWExEREREREREREVFKSFBQvr3/JDm9eK0Zz1yhhNSdP8YE1AitNSRHuV1IjtcIx61N5nU+a1ier++TkqdjE/NdYcfPyJ4Xxopcv+4yLNegnGE5ERERERERERERESXVHYPyw9N/lv0fzTHjvvlzSsMln8gNH584Ibk1vHYOybUVuYbkzk3oMU27aNGwvPTHvSVrvUrmO6/tOCSHXv9MbF8UJyy3dsFCRERERERERERERJRUdwzKj89dboYe/n7SYPGn4p4jwITiCKudQ3IE39Z+yTX81qDcOSTXYg3L8Tl3X1+p9NVQyVS6iPnuK9sOS/TZq3GCeQ3L2aqciIiIiIiIiIiIiJIjw40EJMxr2/eX4q89IdkaVXW0JA8LC3ME1wisAWE3gm5vb29TNChHEG5tTW5lDbqxHA3hw8PDJeLYWfm3z0dSfMIrEpkrwBGm6/I1jMd0/Q4iIiIiIiIiIiIiosS4Y1CuITZajFtDbA3KMQ3vO4fYGpJriO0qJFf6HSgalmsIbwLz24TxGHdusU5ERERERERERERElFAJboKtQTYCcy14jWBaQ3KE1trK21W/5PHR91EwPz7rvDwNwl2tgxYiIiIiIiIiIiIiosRKVF8l1lDaGmproG0NyVESEpIrnQ+f0eXqsp27WdHlMSAnIiIiIiIiIiIiouRKVFBuDbOdW5G7CrO1JJSr5et3WJevITwKEREREREREREREVFyJLqPcu2nHH2GYzqCbQ21EWBjXEPsxITkVq6+EwXfiWmA78H3OQfnSf1OIiIiIiIiIiIiInowJTgoR0FQrUUDa2sLcA3JMU1LUul34nus34tpoMG4c0ienO8kIiIiIiIiIiIiogfPHYNysIbWWvRjCKadg+qUCqwT+r0MyYmIiIiIiIiIiIgoqRIUlIOG1tYCGlBbg+qUDKzv1fcSERERERERERER0YMhwUE5WINqZ9bAOqXpd7r6bobkRERERERERERERJQciQrK4XZhdWq7l99NRERERERERERERPcjkf8HyDwK6PhN3GEAAAAASUVORK5CYII=;" vertex="1" parent="1">
          <mxGeometry x="50" y="-10" width="1017.87" height="323.49" as="geometry" />
        </mxCell>
        <mxCell id="xKZLY5sYZlGWzE59zILW-2" value="" style="shape=table;startSize=0;container=1;collapsible=0;childLayout=tableLayout;" vertex="1" parent="1">
          <mxGeometry x="92" y="320" width="948" height="560" as="geometry" />
        </mxCell>
        <mxCell id="xKZLY5sYZlGWzE59zILW-3" value="" style="shape=tableRow;horizontal=0;startSize=0;swimlaneHead=0;swimlaneBody=0;strokeColor=inherit;top=0;left=0;bottom=0;right=0;collapsible=0;dropTarget=0;fillColor=none;points=[[0,0.5],[1,0.5]];portConstraint=eastwest;" vertex="1" parent="xKZLY5sYZlGWzE59zILW-2">
          <mxGeometry width="948" height="40" as="geometry" />
        </mxCell>
        <mxCell id="xKZLY5sYZlGWzE59zILW-4" value="№" style="shape=partialRectangle;html=1;whiteSpace=wrap;connectable=0;strokeColor=inherit;overflow=hidden;fillColor=none;top=0;left=0;bottom=0;right=0;pointerEvents=1;" vertex="1" parent="xKZLY5sYZlGWzE59zILW-3">
          <mxGeometry width="54" height="40" as="geometry">
            <mxRectangle width="54" height="40" as="alternateBounds" />
          </mxGeometry>
        </mxCell>
        <mxCell id="xKZLY5sYZlGWzE59zILW-5" value="&lt;font style=&quot;font-size: 18px;&quot; face=&quot;Times New Roman&quot;&gt;Взаимодействие&lt;/font&gt;" style="shape=partialRectangle;html=1;whiteSpace=wrap;connectable=0;strokeColor=inherit;overflow=hidden;fillColor=none;top=0;left=0;bottom=0;right=0;pointerEvents=1;" vertex="1" parent="xKZLY5sYZlGWzE59zILW-3">
          <mxGeometry x="54" width="444" height="40" as="geometry">
            <mxRectangle width="444" height="40" as="alternateBounds" />
          </mxGeometry>
        </mxCell>
        <mxCell id="xKZLY5sYZlGWzE59zILW-6" value="&lt;font style=&quot;font-size: 18px;&quot; face=&quot;Times New Roman&quot;&gt;Описание&lt;/font&gt;" style="shape=partialRectangle;html=1;whiteSpace=wrap;connectable=0;strokeColor=inherit;overflow=hidden;fillColor=none;top=0;left=0;bottom=0;right=0;pointerEvents=1;" vertex="1" parent="xKZLY5sYZlGWzE59zILW-3">
          <mxGeometry x="498" width="450" height="40" as="geometry">
            <mxRectangle width="450" height="40" as="alternateBounds" />
          </mxGeometry>
        </mxCell>
        <mxCell id="xKZLY5sYZlGWzE59zILW-7" value="" style="shape=tableRow;horizontal=0;startSize=0;swimlaneHead=0;swimlaneBody=0;strokeColor=inherit;top=0;left=0;bottom=0;right=0;collapsible=0;dropTarget=0;fillColor=none;points=[[0,0.5],[1,0.5]];portConstraint=eastwest;" vertex="1" parent="xKZLY5sYZlGWzE59zILW-2">
          <mxGeometry y="40" width="948" height="70" as="geometry" />
        </mxCell>
        <mxCell id="xKZLY5sYZlGWzE59zILW-8" value="1" style="shape=partialRectangle;html=1;whiteSpace=wrap;connectable=0;strokeColor=inherit;overflow=hidden;fillColor=none;top=0;left=0;bottom=0;right=0;pointerEvents=1;" vertex="1" parent="xKZLY5sYZlGWzE59zILW-7">
          <mxGeometry width="54" height="70" as="geometry">
            <mxRectangle width="54" height="70" as="alternateBounds" />
          </mxGeometry>
        </mxCell>
        <mxCell id="xKZLY5sYZlGWzE59zILW-9" value="&lt;div style=&quot;line-height: 19px; white-space: pre;&quot;&gt;&lt;span style=&quot;background-color: rgb(255, 255, 255);&quot;&gt;&lt;font face=&quot;Times New Roman&quot; style=&quot;font-size: 16px;&quot; color=&quot;#0a0300&quot;&gt;User -&amp;gt; Frontend: &lt;/font&gt;&lt;/span&gt;&lt;/div&gt;&lt;div style=&quot;line-height: 19px; white-space: pre;&quot;&gt;&lt;span style=&quot;background-color: rgb(255, 255, 255);&quot;&gt;&lt;font face=&quot;Times New Roman&quot; style=&quot;font-size: 16px;&quot; color=&quot;#0a0300&quot;&gt;Нажимает кнопку &quot;Доставка по дате&quot;&lt;/font&gt;&lt;/span&gt;&lt;/div&gt;" style="shape=partialRectangle;html=1;whiteSpace=wrap;connectable=0;strokeColor=inherit;overflow=hidden;fillColor=none;top=0;left=0;bottom=0;right=0;pointerEvents=1;fontColor=#FFFFFF;" vertex="1" parent="xKZLY5sYZlGWzE59zILW-7">
          <mxGeometry x="54" width="444" height="70" as="geometry">
            <mxRectangle width="444" height="70" as="alternateBounds" />
          </mxGeometry>
        </mxCell>
        <mxCell id="xKZLY5sYZlGWzE59zILW-10" value="&lt;span style=&quot;text-align: left; background-color: rgb(255, 255, 255);&quot;&gt;&lt;font face=&quot;Times New Roman&quot; style=&quot;font-size: 15px;&quot; color=&quot;#0a0300&quot;&gt;Пользователь открывает мобильное приложение Wildberries и находит кнопку &quot;Доставка по дате&quot; и нажимает на нее.&lt;/font&gt;&lt;/span&gt;" style="shape=partialRectangle;html=1;whiteSpace=wrap;connectable=0;strokeColor=inherit;overflow=hidden;fillColor=none;top=0;left=0;bottom=0;right=0;pointerEvents=1;" vertex="1" parent="xKZLY5sYZlGWzE59zILW-7">
          <mxGeometry x="498" width="450" height="70" as="geometry">
            <mxRectangle width="450" height="70" as="alternateBounds" />
          </mxGeometry>
        </mxCell>
        <mxCell id="xKZLY5sYZlGWzE59zILW-11" value="" style="shape=tableRow;horizontal=0;startSize=0;swimlaneHead=0;swimlaneBody=0;strokeColor=inherit;top=0;left=0;bottom=0;right=0;collapsible=0;dropTarget=0;fillColor=none;points=[[0,0.5],[1,0.5]];portConstraint=eastwest;" vertex="1" parent="xKZLY5sYZlGWzE59zILW-2">
          <mxGeometry y="110" width="948" height="90" as="geometry" />
        </mxCell>
        <mxCell id="xKZLY5sYZlGWzE59zILW-12" value="2" style="shape=partialRectangle;html=1;whiteSpace=wrap;connectable=0;strokeColor=inherit;overflow=hidden;fillColor=none;top=0;left=0;bottom=0;right=0;pointerEvents=1;" vertex="1" parent="xKZLY5sYZlGWzE59zILW-11">
          <mxGeometry width="54" height="90" as="geometry">
            <mxRectangle width="54" height="90" as="alternateBounds" />
          </mxGeometry>
        </mxCell>
        <mxCell id="xKZLY5sYZlGWzE59zILW-13" value="&lt;div style=&quot;line-height: 19px; white-space: pre;&quot;&gt;&lt;span style=&quot;background-color: rgb(255, 255, 255);&quot;&gt;&lt;font face=&quot;Times New Roman&quot; style=&quot;font-size: 16px;&quot; color=&quot;#0a0300&quot;&gt;Frontend -&amp;gt; Backend: &lt;/font&gt;&lt;/span&gt;&lt;/div&gt;&lt;div style=&quot;line-height: 19px; white-space: pre;&quot;&gt;&lt;font style=&quot;font-size: 16px;&quot; face=&quot;Times New Roman&quot;&gt;&lt;span style=&quot;background-color: rgb(255, 255, 255);&quot;&gt;&lt;font color=&quot;#0a0300&quot;&gt;Запрос на получение &lt;/font&gt;&lt;/span&gt;&lt;span style=&quot;color: rgb(10, 3, 0); background-color: rgb(255, 255, 255);&quot;&gt;товаров с датами доставки&lt;/span&gt;&lt;/font&gt;&lt;/div&gt;" style="shape=partialRectangle;html=1;whiteSpace=wrap;connectable=0;strokeColor=inherit;overflow=hidden;fillColor=none;top=0;left=0;bottom=0;right=0;pointerEvents=1;" vertex="1" parent="xKZLY5sYZlGWzE59zILW-11">
          <mxGeometry x="54" width="444" height="90" as="geometry">
            <mxRectangle width="444" height="90" as="alternateBounds" />
          </mxGeometry>
        </mxCell>
        <mxCell id="xKZLY5sYZlGWzE59zILW-14" value="&lt;span style=&quot;text-align: left; background-color: rgb(255, 255, 255);&quot;&gt;&lt;font face=&quot;Times New Roman&quot; style=&quot;font-size: 16px;&quot; color=&quot;#0a0300&quot;&gt;После нажатия кнопки Frontend формирует HTTP-запрос к серверу (Backend). Этот запрос содержит информацию о том, что пользователь хочет получить список товаров, сгруппированных по дате доставки.&lt;/font&gt;&lt;/span&gt;" style="shape=partialRectangle;html=1;whiteSpace=wrap;connectable=0;strokeColor=inherit;overflow=hidden;fillColor=none;top=0;left=0;bottom=0;right=0;pointerEvents=1;" vertex="1" parent="xKZLY5sYZlGWzE59zILW-11">
          <mxGeometry x="498" width="450" height="90" as="geometry">
            <mxRectangle width="450" height="90" as="alternateBounds" />
          </mxGeometry>
        </mxCell>
        <mxCell id="xKZLY5sYZlGWzE59zILW-15" value="" style="shape=tableRow;horizontal=0;startSize=0;swimlaneHead=0;swimlaneBody=0;strokeColor=inherit;top=0;left=0;bottom=0;right=0;collapsible=0;dropTarget=0;fillColor=none;points=[[0,0.5],[1,0.5]];portConstraint=eastwest;" vertex="1" parent="xKZLY5sYZlGWzE59zILW-2">
          <mxGeometry y="200" width="948" height="100" as="geometry" />
        </mxCell>
        <mxCell id="xKZLY5sYZlGWzE59zILW-16" value="3" style="shape=partialRectangle;html=1;whiteSpace=wrap;connectable=0;strokeColor=inherit;overflow=hidden;fillColor=none;top=0;left=0;bottom=0;right=0;pointerEvents=1;" vertex="1" parent="xKZLY5sYZlGWzE59zILW-15">
          <mxGeometry width="54" height="100" as="geometry">
            <mxRectangle width="54" height="100" as="alternateBounds" />
          </mxGeometry>
        </mxCell>
        <mxCell id="xKZLY5sYZlGWzE59zILW-17" value="&lt;div style=&quot;line-height: 19px; white-space: pre;&quot;&gt;&lt;span style=&quot;background-color: rgb(255, 255, 255);&quot;&gt;&lt;font face=&quot;Times New Roman&quot; style=&quot;font-size: 16px;&quot; color=&quot;#0a0300&quot;&gt;Backend -&amp;gt; Database: &lt;/font&gt;&lt;/span&gt;&lt;/div&gt;&lt;div style=&quot;line-height: 19px; white-space: pre;&quot;&gt;&lt;font style=&quot;font-size: 16px;&quot; face=&quot;Times New Roman&quot;&gt;&lt;span style=&quot;background-color: rgb(255, 255, 255);&quot;&gt;&lt;font color=&quot;#0a0300&quot;&gt;Запрос на получение данных &lt;/font&gt;&lt;/span&gt;&lt;span style=&quot;color: rgb(10, 3, 0); background-color: rgb(255, 255, 255);&quot;&gt;о товарах и датах их доставки&lt;/span&gt;&lt;/font&gt;&lt;/div&gt;" style="shape=partialRectangle;html=1;whiteSpace=wrap;connectable=0;strokeColor=inherit;overflow=hidden;fillColor=none;top=0;left=0;bottom=0;right=0;pointerEvents=1;" vertex="1" parent="xKZLY5sYZlGWzE59zILW-15">
          <mxGeometry x="54" width="444" height="100" as="geometry">
            <mxRectangle width="444" height="100" as="alternateBounds" />
          </mxGeometry>
        </mxCell>
        <mxCell id="xKZLY5sYZlGWzE59zILW-18" value="&lt;span style=&quot;text-align: left; background-color: rgb(255, 255, 255);&quot;&gt;&lt;font face=&quot;Times New Roman&quot; style=&quot;font-size: 16px;&quot; color=&quot;#0a0300&quot;&gt;&amp;nbsp;Сервер (Backend) получает запрос от Frontend и начинает его обрабатывать. Он формирует SQL-запрос для извлечения данных о товарах и их датах доставки из базы данных.&lt;/font&gt;&lt;/span&gt;" style="shape=partialRectangle;html=1;whiteSpace=wrap;connectable=0;strokeColor=inherit;overflow=hidden;fillColor=none;top=0;left=0;bottom=0;right=0;pointerEvents=1;" vertex="1" parent="xKZLY5sYZlGWzE59zILW-15">
          <mxGeometry x="498" width="450" height="100" as="geometry">
            <mxRectangle width="450" height="100" as="alternateBounds" />
          </mxGeometry>
        </mxCell>
        <mxCell id="xKZLY5sYZlGWzE59zILW-19" value="" style="shape=tableRow;horizontal=0;startSize=0;swimlaneHead=0;swimlaneBody=0;strokeColor=inherit;top=0;left=0;bottom=0;right=0;collapsible=0;dropTarget=0;fillColor=none;points=[[0,0.5],[1,0.5]];portConstraint=eastwest;" vertex="1" parent="xKZLY5sYZlGWzE59zILW-2">
          <mxGeometry y="300" width="948" height="80" as="geometry" />
        </mxCell>
        <mxCell id="xKZLY5sYZlGWzE59zILW-20" value="4" style="shape=partialRectangle;html=1;whiteSpace=wrap;connectable=0;strokeColor=inherit;overflow=hidden;fillColor=none;top=0;left=0;bottom=0;right=0;pointerEvents=1;" vertex="1" parent="xKZLY5sYZlGWzE59zILW-19">
          <mxGeometry width="54" height="80" as="geometry">
            <mxRectangle width="54" height="80" as="alternateBounds" />
          </mxGeometry>
        </mxCell>
        <mxCell id="xKZLY5sYZlGWzE59zILW-21" value="&lt;div style=&quot;line-height: 19px; white-space: pre;&quot;&gt;&lt;span style=&quot;background-color: rgb(255, 255, 255);&quot;&gt;&lt;font face=&quot;Times New Roman&quot; style=&quot;font-size: 16px;&quot; color=&quot;#0a0300&quot;&gt;Database -&amp;gt; Backend: &lt;/font&gt;&lt;/span&gt;&lt;/div&gt;&lt;div style=&quot;line-height: 19px; white-space: pre;&quot;&gt;&lt;span style=&quot;background-color: rgb(255, 255, 255);&quot;&gt;&lt;font face=&quot;Times New Roman&quot; style=&quot;font-size: 16px;&quot; color=&quot;#0a0300&quot;&gt;Данные о товарах с датами доставки&lt;/font&gt;&lt;/span&gt;&lt;/div&gt;" style="shape=partialRectangle;html=1;whiteSpace=wrap;connectable=0;strokeColor=inherit;overflow=hidden;fillColor=none;top=0;left=0;bottom=0;right=0;pointerEvents=1;" vertex="1" parent="xKZLY5sYZlGWzE59zILW-19">
          <mxGeometry x="54" width="444" height="80" as="geometry">
            <mxRectangle width="444" height="80" as="alternateBounds" />
          </mxGeometry>
        </mxCell>
        <mxCell id="xKZLY5sYZlGWzE59zILW-22" value="&lt;span style=&quot;text-align: left; background-color: rgb(255, 255, 255);&quot;&gt;&lt;font face=&quot;Times New Roman&quot; style=&quot;font-size: 16px;&quot; color=&quot;#0a0300&quot;&gt;&amp;nbsp;База данных PostgreSQL обрабатывает запрос и возвращает результат, который включает информацию о товарах и их соответствующих датах доставки.&lt;/font&gt;&lt;/span&gt;" style="shape=partialRectangle;html=1;whiteSpace=wrap;connectable=0;strokeColor=inherit;overflow=hidden;fillColor=none;top=0;left=0;bottom=0;right=0;pointerEvents=1;" vertex="1" parent="xKZLY5sYZlGWzE59zILW-19">
          <mxGeometry x="498" width="450" height="80" as="geometry">
            <mxRectangle width="450" height="80" as="alternateBounds" />
          </mxGeometry>
        </mxCell>
        <mxCell id="xKZLY5sYZlGWzE59zILW-23" value="" style="shape=tableRow;horizontal=0;startSize=0;swimlaneHead=0;swimlaneBody=0;strokeColor=inherit;top=0;left=0;bottom=0;right=0;collapsible=0;dropTarget=0;fillColor=none;points=[[0,0.5],[1,0.5]];portConstraint=eastwest;" vertex="1" parent="xKZLY5sYZlGWzE59zILW-2">
          <mxGeometry y="380" width="948" height="90" as="geometry" />
        </mxCell>
        <mxCell id="xKZLY5sYZlGWzE59zILW-24" value="5" style="shape=partialRectangle;html=1;whiteSpace=wrap;connectable=0;strokeColor=inherit;overflow=hidden;fillColor=none;top=0;left=0;bottom=0;right=0;pointerEvents=1;" vertex="1" parent="xKZLY5sYZlGWzE59zILW-23">
          <mxGeometry width="54" height="90" as="geometry">
            <mxRectangle width="54" height="90" as="alternateBounds" />
          </mxGeometry>
        </mxCell>
        <mxCell id="xKZLY5sYZlGWzE59zILW-25" value="&lt;div style=&quot;line-height: 19px; white-space: pre;&quot;&gt;&lt;span style=&quot;background-color: rgb(255, 255, 255);&quot;&gt;&lt;font face=&quot;Times New Roman&quot; style=&quot;font-size: 16px;&quot; color=&quot;#0a0300&quot;&gt;Backend -&amp;gt; Frontend: &lt;/font&gt;&lt;/span&gt;&lt;/div&gt;&lt;div style=&quot;line-height: 19px; white-space: pre;&quot;&gt;&lt;span style=&quot;background-color: rgb(255, 255, 255);&quot;&gt;&lt;font face=&quot;Times New Roman&quot; style=&quot;font-size: 16px;&quot; color=&quot;#0a0300&quot;&gt;Группировка товаров по датам доставки&lt;/font&gt;&lt;/span&gt;&lt;/div&gt;" style="shape=partialRectangle;html=1;whiteSpace=wrap;connectable=0;strokeColor=inherit;overflow=hidden;fillColor=none;top=0;left=0;bottom=0;right=0;pointerEvents=1;" vertex="1" parent="xKZLY5sYZlGWzE59zILW-23">
          <mxGeometry x="54" width="444" height="90" as="geometry">
            <mxRectangle width="444" height="90" as="alternateBounds" />
          </mxGeometry>
        </mxCell>
        <mxCell id="xKZLY5sYZlGWzE59zILW-26" value="&lt;span style=&quot;text-align: left; background-color: rgb(255, 255, 255);&quot;&gt;&lt;font face=&quot;Times New Roman&quot; style=&quot;font-size: 16px;&quot; color=&quot;#0a0300&quot;&gt;После получения данных от базы данных, Backend обрабатывает их, группируя товары по дате доставки. Он формирует ответ для Frontend, который теперь содержит сгруппированные данные о товарах.&lt;/font&gt;&lt;/span&gt;" style="shape=partialRectangle;html=1;whiteSpace=wrap;connectable=0;strokeColor=inherit;overflow=hidden;fillColor=none;top=0;left=0;bottom=0;right=0;pointerEvents=1;" vertex="1" parent="xKZLY5sYZlGWzE59zILW-23">
          <mxGeometry x="498" width="450" height="90" as="geometry">
            <mxRectangle width="450" height="90" as="alternateBounds" />
          </mxGeometry>
        </mxCell>
        <mxCell id="xKZLY5sYZlGWzE59zILW-27" value="" style="shape=tableRow;horizontal=0;startSize=0;swimlaneHead=0;swimlaneBody=0;strokeColor=inherit;top=0;left=0;bottom=0;right=0;collapsible=0;dropTarget=0;fillColor=none;points=[[0,0.5],[1,0.5]];portConstraint=eastwest;" vertex="1" parent="xKZLY5sYZlGWzE59zILW-2">
          <mxGeometry y="470" width="948" height="90" as="geometry" />
        </mxCell>
        <mxCell id="xKZLY5sYZlGWzE59zILW-28" value="6" style="shape=partialRectangle;html=1;whiteSpace=wrap;connectable=0;strokeColor=inherit;overflow=hidden;fillColor=none;top=0;left=0;bottom=0;right=0;pointerEvents=1;" vertex="1" parent="xKZLY5sYZlGWzE59zILW-27">
          <mxGeometry width="54" height="90" as="geometry">
            <mxRectangle width="54" height="90" as="alternateBounds" />
          </mxGeometry>
        </mxCell>
        <mxCell id="xKZLY5sYZlGWzE59zILW-29" value="&lt;div style=&quot;line-height: 19px; white-space: pre;&quot;&gt;&lt;span style=&quot;background-color: rgb(255, 255, 255);&quot;&gt;&lt;font face=&quot;Times New Roman&quot; style=&quot;font-size: 16px;&quot; color=&quot;#0a0300&quot;&gt;Frontend -&amp;gt; User: &lt;/font&gt;&lt;/span&gt;&lt;/div&gt;&lt;div style=&quot;line-height: 19px; white-space: pre;&quot;&gt;&lt;span style=&quot;background-color: rgb(255, 255, 255);&quot;&gt;&lt;font face=&quot;Times New Roman&quot; style=&quot;font-size: 16px;&quot; color=&quot;#0a0300&quot;&gt;Отображение товаров, сгруппированных по дате доставки&lt;/font&gt;&lt;/span&gt;&lt;/div&gt;" style="shape=partialRectangle;html=1;whiteSpace=wrap;connectable=0;strokeColor=inherit;overflow=hidden;fillColor=none;top=0;left=0;bottom=0;right=0;pointerEvents=1;" vertex="1" parent="xKZLY5sYZlGWzE59zILW-27">
          <mxGeometry x="54" width="444" height="90" as="geometry">
            <mxRectangle width="444" height="90" as="alternateBounds" />
          </mxGeometry>
        </mxCell>
        <mxCell id="xKZLY5sYZlGWzE59zILW-30" value="&lt;span style=&quot;text-align: left; background-color: rgb(255, 255, 255);&quot;&gt;&lt;font face=&quot;Times New Roman&quot; style=&quot;font-size: 16px;&quot; color=&quot;#0a0300&quot;&gt;&amp;nbsp;Frontend получает ответ от Backend и обновляет пользовательский интерфейс, чтобы отобразить товары в удобном для пользователя формате, сгруппированные по дате доставки.&lt;/font&gt;&lt;/span&gt;" style="shape=partialRectangle;html=1;whiteSpace=wrap;connectable=0;strokeColor=inherit;overflow=hidden;fillColor=none;top=0;left=0;bottom=0;right=0;pointerEvents=1;" vertex="1" parent="xKZLY5sYZlGWzE59zILW-27">
          <mxGeometry x="498" width="450" height="90" as="geometry">
            <mxRectangle width="450" height="90" as="alternateBounds" />
          </mxGeometry>
        </mxCell>
      </root>
    </mxGraphModel>
  </diagram>
</mxfile>
